<svg width="316" height="281" viewBox="0 0 316 281" fill="none" xmlns="http://www.w3.org/2000/svg">
<path d="M5.78672 127.84C7.14672 125.8 8.26672 123.9 9.14672 122.14C10.0667 120.38 10.9467 118.34 11.7867 116.02C14.6267 117.66 17.9267 118.94 21.6867 119.86C25.4467 120.78 28.9467 121.24 32.1867 121.24C35.5067 121.24 37.8467 120.96 39.2067 120.4C40.5667 119.8 41.2467 119.16 41.2467 118.48C41.2467 116.04 37.5267 114.82 30.0867 114.82C21.9267 114.82 16.0067 113.98 12.3267 112.3C8.64672 110.58 6.80672 107.82 6.80672 104.02C6.80672 98.62 9.04672 94.64 13.5267 92.08C18.0067 89.52 23.8267 88.24 30.9867 88.24C35.1467 88.24 39.4067 88.78 43.7667 89.86C48.1667 90.9 52.1267 92.34 55.6467 94.18C54.4867 96.82 53.2667 100.04 51.9867 103.84C51.7467 104.64 51.5467 105.24 51.3867 105.64C49.3467 104 46.2667 102.64 42.1467 101.56C38.0267 100.44 34.3867 99.88 31.2267 99.88C27.4267 99.88 24.8667 100.14 23.5467 100.66C22.2267 101.14 21.5667 101.86 21.5667 102.82C21.5667 103.78 22.4667 104.56 24.2667 105.16C26.1067 105.72 28.7467 106 32.1867 106C40.6667 106 46.8267 106.98 50.6667 108.94C54.5067 110.86 56.4267 113.82 56.4267 117.82C56.4267 123.42 54.3867 127.46 50.3067 129.94C46.2267 132.38 40.0467 133.6 31.7667 133.6C27.3267 133.6 22.8067 133.12 18.2067 132.16C13.6067 131.16 9.46672 129.72 5.78672 127.84ZM95.8964 100.24C91.5764 111.88 87.7364 122.8 84.3764 133H65.5964C61.9964 122.08 58.1364 111.16 54.0164 100.24H68.1164L75.0764 124.96L81.9764 100.24H95.8964ZM122.263 118H102.703C103.023 119.76 103.803 121.2 105.043 122.32C106.323 123.4 108.123 123.94 110.443 123.94C112.123 123.94 113.703 123.62 115.183 122.98C116.663 122.3 117.843 121.36 118.723 120.16C121.403 121.48 124.963 122.9 129.403 124.42C128.163 127.22 125.903 129.46 122.623 131.14C119.383 132.78 115.143 133.6 109.903 133.6C103.103 133.6 98.0627 132.04 94.7827 128.92C91.5427 125.76 89.9227 121.62 89.9227 116.5C89.9227 111.5 91.5427 107.44 94.7827 104.32C98.0227 101.2 103.063 99.64 109.903 99.64C113.983 99.64 117.523 100.32 120.523 101.68C123.523 103.04 125.823 104.94 127.423 107.38C129.023 109.78 129.823 112.54 129.823 115.66C129.823 116.7 129.783 117.48 129.703 118H122.263ZM110.743 108.7C108.743 108.7 107.103 109.08 105.823 109.84C104.543 110.6 103.643 111.64 103.123 112.96H117.283C116.803 111.68 116.023 110.66 114.943 109.9C113.863 109.1 112.463 108.7 110.743 108.7ZM155.419 99.64C158.019 99.64 160.359 100.38 162.439 101.86C164.519 103.34 166.139 105.36 167.299 107.92C168.459 110.44 169.039 113.22 169.039 116.26C169.039 119.26 168.459 122.1 167.299 124.78C166.139 127.42 164.499 129.56 162.379 131.2C160.299 132.8 157.919 133.6 155.239 133.6C152.119 133.6 149.439 132.96 147.199 131.68C144.999 130.36 143.359 128.34 142.279 125.62C142.279 127.9 142.359 131.56 142.519 136.6C142.679 141.48 142.759 144.92 142.759 146.92H129.199C129.439 139.48 129.559 131.7 129.559 123.58C129.559 115.46 129.439 107.68 129.199 100.24H140.719L142.459 107.74C143.579 104.94 145.259 102.9 147.499 101.62C149.739 100.3 152.379 99.64 155.419 99.64ZM148.999 122.8C150.799 122.8 152.299 122.24 153.499 121.12C154.739 119.96 155.359 118.46 155.359 116.62C155.359 114.58 154.799 112.92 153.679 111.64C152.559 110.36 151.039 109.72 149.119 109.72C146.919 109.72 145.259 110.26 144.139 111.34C143.019 112.38 142.459 114.14 142.459 116.62C142.459 118.02 142.819 119.2 143.539 120.16C144.259 121.08 145.119 121.76 146.119 122.2C147.119 122.6 148.079 122.8 148.999 122.8ZM206.922 123.04C206.922 124.4 207.082 125.36 207.402 125.92C207.722 126.48 208.362 126.88 209.322 127.12L209.082 132.76C207.802 132.96 206.682 133.1 205.722 133.18C204.802 133.26 203.562 133.3 202.002 133.3C198.562 133.3 196.282 132.54 195.162 131.02C194.042 129.46 193.482 127.48 193.482 125.08V123.58C192.322 126.86 190.622 129.3 188.382 130.9C186.182 132.5 183.362 133.3 179.922 133.3C175.922 133.3 172.902 132.5 170.862 130.9C168.862 129.3 167.862 126.92 167.862 123.76C167.862 121.16 168.722 119.12 170.442 117.64C172.162 116.16 174.822 115.14 178.422 114.58C175.382 112.42 172.342 110.54 169.302 108.94C171.702 105.9 174.442 103.6 177.522 102.04C180.602 100.44 184.342 99.64 188.742 99.64C194.902 99.64 199.462 100.98 202.422 103.66C205.422 106.3 206.922 110.38 206.922 115.9V123.04ZM190.002 110.2C187.962 110.2 186.162 110.54 184.602 111.22C183.042 111.9 181.642 112.92 180.402 114.28C182.802 114 185.802 113.86 189.402 113.86C190.882 113.86 191.922 113.68 192.522 113.32C193.122 112.96 193.422 112.5 193.422 111.94C193.422 111.46 193.122 111.06 192.522 110.74C191.922 110.38 191.082 110.2 190.002 110.2ZM183.702 123.52C185.942 123.52 187.962 123.1 189.762 122.26C191.562 121.38 192.802 120.24 193.482 118.84V117.28C192.522 117.76 191.462 118.14 190.302 118.42C189.142 118.66 187.742 118.9 186.102 119.14L183.942 119.5C181.702 119.94 180.582 120.7 180.582 121.78C180.582 122.94 181.622 123.52 183.702 123.52Z" fill="black"/>
<path d="M110.947 175.34C120.067 175.34 124.627 178.24 124.627 184.04C124.627 186.76 124.007 189.08 122.767 191C121.527 192.88 119.307 194.36 116.107 195.44C112.907 196.48 108.467 197 102.787 197H75.7867C76.1067 189.24 76.2667 181.98 76.2667 175.22C76.2667 168.46 76.1067 161.2 75.7867 153.44H89.8867V153.5H102.667C107.627 153.5 111.527 153.92 114.367 154.76C117.247 155.56 119.267 156.74 120.427 158.3C121.627 159.86 122.227 161.84 122.227 164.24C122.227 166.68 121.367 168.86 119.647 170.78C117.967 172.66 115.067 174.18 110.947 175.34ZM89.8867 164.42V170H101.407C103.887 170 105.607 169.78 106.567 169.34C107.567 168.9 108.067 168.1 108.067 166.94C108.067 166.02 107.547 165.38 106.507 165.02C105.507 164.62 103.807 164.42 101.407 164.42H89.8867ZM101.407 186.02C103.487 186.02 105.067 185.94 106.147 185.78C107.267 185.58 108.067 185.26 108.547 184.82C109.027 184.34 109.267 183.7 109.267 182.9C109.267 181.86 108.687 181.12 107.527 180.68C106.407 180.2 104.367 179.96 101.407 179.96H89.8867V186.02H101.407ZM148.72 197.6C141.88 197.6 136.84 196.04 133.6 192.92C130.4 189.76 128.8 185.62 128.8 180.5C128.8 175.5 130.4 171.44 133.6 168.32C136.84 165.2 141.88 163.64 148.72 163.64C153.32 163.64 157.16 164.4 160.24 165.92C163.36 167.4 165.66 169.42 167.14 171.98C168.62 174.5 169.36 177.34 169.36 180.5C169.36 185.66 167.64 189.8 164.2 192.92C160.8 196.04 155.64 197.6 148.72 197.6ZM148.96 187.4C151.56 187.4 153.5 186.78 154.78 185.54C156.06 184.3 156.7 182.64 156.7 180.56C156.7 178.6 156.06 177 154.78 175.76C153.5 174.48 151.56 173.84 148.96 173.84C146.36 173.84 144.46 174.46 143.26 175.7C142.06 176.94 141.46 178.56 141.46 180.56C141.46 182.64 142.06 184.3 143.26 185.54C144.46 186.78 146.36 187.4 148.96 187.4ZM200.76 174.98C197.08 174.74 193.72 174.56 190.68 174.44L190.62 180.8C190.62 182.96 191.08 184.66 192 185.9C192.96 187.1 194.64 187.7 197.04 187.7C197.96 187.7 198.84 187.62 199.68 187.46C199.52 188.94 199.44 190.44 199.44 191.96C199.44 192.68 199.48 194.32 199.56 196.88C197.8 197.2 196.32 197.4 195.12 197.48C193.92 197.56 192.36 197.6 190.44 197.6C185.76 197.6 182.44 196.48 180.48 194.24C178.56 191.96 177.6 188.8 177.6 184.76L177.66 174.62C175.78 174.7 173.82 174.82 171.78 174.98V164.36C173.86 164.36 175.62 163.7 177.06 162.38C178.5 161.06 179.36 159.48 179.64 157.64H195.96C193.92 160.44 191.66 162.68 189.18 164.36H200.76V174.98ZM231.521 174.98C227.841 174.74 224.481 174.56 221.441 174.44L221.381 180.8C221.381 182.96 221.841 184.66 222.761 185.9C223.721 187.1 225.401 187.7 227.801 187.7C228.721 187.7 229.601 187.62 230.441 187.46C230.281 188.94 230.201 190.44 230.201 191.96C230.201 192.68 230.241 194.32 230.321 196.88C228.561 197.2 227.081 197.4 225.881 197.48C224.681 197.56 223.121 197.6 221.201 197.6C216.521 197.6 213.201 196.48 211.241 194.24C209.321 191.96 208.361 188.8 208.361 184.76L208.421 174.62C206.541 174.7 204.581 174.82 202.541 174.98V164.36C204.621 164.36 206.381 163.7 207.821 162.38C209.261 161.06 210.121 159.48 210.401 157.64H226.721C224.681 160.44 222.421 162.68 219.941 164.36H231.521V174.98ZM266.843 182H247.283C247.603 183.76 248.383 185.2 249.623 186.32C250.903 187.4 252.703 187.94 255.023 187.94C256.703 187.94 258.283 187.62 259.763 186.98C261.243 186.3 262.423 185.36 263.303 184.16C265.983 185.48 269.543 186.9 273.983 188.42C272.743 191.22 270.483 193.46 267.203 195.14C263.963 196.78 259.723 197.6 254.483 197.6C247.683 197.6 242.643 196.04 239.363 192.92C236.123 189.76 234.503 185.62 234.503 180.5C234.503 175.5 236.123 171.44 239.363 168.32C242.603 165.2 247.643 163.64 254.483 163.64C258.563 163.64 262.103 164.32 265.103 165.68C268.103 167.04 270.403 168.94 272.003 171.38C273.603 173.78 274.403 176.54 274.403 179.66C274.403 180.7 274.363 181.48 274.283 182H266.843ZM255.323 172.7C253.323 172.7 251.683 173.08 250.403 173.84C249.123 174.6 248.223 175.64 247.703 176.96H261.863C261.383 175.68 260.603 174.66 259.523 173.9C258.443 173.1 257.043 172.7 255.323 172.7ZM301.98 197C302.22 191.12 302.34 185.7 302.34 180.74C302.34 178.98 301.9 177.58 301.02 176.54C300.18 175.5 299.1 174.98 297.78 174.98C296.46 174.98 295.34 175.58 294.42 176.78C293.5 177.94 292.96 179.54 292.8 181.58C292.72 184.62 292.68 186.78 292.68 188.06C292.68 190.78 292.76 193.76 292.92 197H278.58C278.9 191.24 279.06 185.8 279.06 180.68C279.06 175.56 278.9 170.08 278.58 164.24C281.22 164.36 283.24 164.42 284.64 164.42C286.12 164.42 288.14 164.36 290.7 164.24L292.44 173.06C293.36 169.86 294.8 167.5 296.76 165.98C298.72 164.42 301 163.64 303.6 163.64C306 163.64 308.08 164.18 309.84 165.26C311.6 166.3 312.92 167.72 313.8 169.52C314.72 171.32 315.18 173.34 315.18 175.58V184.22C315.18 189.54 315.28 193.8 315.48 197H301.98Z" fill="black"/>
<path d="M22.1001 174.529C24.0017 173.913 25.7244 172.118 27.7851 169.833C29.8987 167.489 32.9731 167.187 35.1662 167.187C35.2192 167.187 35.2722 167.187 35.3252 167.187C41.4342 167.228 43.8725 170.684 46.0193 173.732C47.7089 176.124 49.1666 178.194 52.0819 177.752C58.0716 176.847 60.4039 167.067 60.5762 158.961C60.6425 155.926 60.2913 152.034 56.9718 148.839C53.2746 145.282 46.4433 143.225 36.6637 142.723C36.6173 142.723 31.8401 142.2 26.6521 142.743C21.8748 143.245 15.7526 144.773 13.7384 149.207C9.94839 157.554 9.53096 168.608 15.3948 172.654C18.1511 174.556 20.2184 175.132 22.1001 174.523V174.529ZM47.0728 150.574C47.1457 150.38 47.2915 150.232 47.4836 150.152C47.6691 150.072 47.8811 150.065 48.0667 150.145L50.4387 151.097C50.8296 151.257 51.0218 151.706 50.8694 152.101C50.7965 152.296 50.6507 152.443 50.4586 152.523C50.3592 152.564 50.2598 152.584 50.1538 152.584C50.061 152.584 49.9617 152.564 49.8689 152.53L47.4969 151.579C47.1059 151.418 46.9138 150.969 47.0662 150.574H47.0728ZM46.2247 168.212L46.7283 164.528C46.7879 164.072 47.0198 163.67 47.3842 163.396C47.7486 163.121 48.1926 163.001 48.6431 163.061C49.5707 163.188 50.2201 164.059 50.0942 164.997L49.5906 168.681C49.4713 169.539 48.7425 170.168 47.9077 170.168C47.8281 170.168 47.7553 170.168 47.6758 170.155C47.2252 170.095 46.8276 169.854 46.556 169.492C46.2843 169.123 46.1651 168.675 46.2247 168.219V168.212ZM25.9365 167.261C25.9365 168.045 25.307 168.681 24.5384 168.681C23.7698 168.681 23.1404 168.045 23.1404 167.261V163.617C23.1404 162.833 23.7698 162.197 24.5384 162.197C25.307 162.197 25.9365 162.833 25.9365 163.617V167.261ZM23.0741 149.877L25.4793 149.013C25.6714 148.946 25.8768 148.953 26.0624 149.047C26.2479 149.134 26.387 149.295 26.4533 149.489C26.5924 149.891 26.387 150.333 25.9895 150.48L23.5843 151.344C23.4982 151.378 23.412 151.391 23.3259 151.391C23.0079 151.391 22.7163 151.19 22.6037 150.875C22.4645 150.474 22.6699 150.031 23.0675 149.884L23.0741 149.877Z" fill="#FBA993"/>
<path d="M32.8795 142.027L28.4819 139.282L10.5738 168.609L14.9714 171.354L32.8795 142.027Z" fill="url(#paint0_linear_155_2339)"/>
<path d="M50.0638 141.464L38.5681 134.288L14.0327 174.469L25.5284 181.644L50.0638 141.464Z" fill="url(#paint1_linear_155_2339)"/>
<path d="M58.2135 144.419L53.8159 141.674L37.4601 168.459L41.8577 171.204L58.2135 144.419Z" fill="url(#paint2_linear_155_2339)"/>
<path d="M34.3911 181.162C34.3977 181.108 34.4044 181.048 34.411 180.981C34.4309 180.773 34.4574 180.512 34.5634 180.244C33.4237 180.143 32.3106 180.05 31.2306 179.963L31.2107 179.989C31.2107 179.989 31.1908 179.976 31.1776 179.969C31.171 179.969 31.1643 179.963 31.1577 179.956H31.1445C31.1113 179.949 31.0716 179.943 31.0384 179.943C26.4998 179.567 22.5044 179.239 19.1385 178.496C18.7674 178.429 18.4627 178.368 18.2241 178.308C19.4234 179.206 24.2006 182.602 29.1567 183.332C31.277 183.64 33.2713 183.801 34.9344 183.788C34.1459 182.723 34.2917 181.778 34.3778 181.242L34.3911 181.155V181.162Z" fill="#FBA993"/>
<path d="M25.3934 179.185C25.3934 179.185 25.4 179.185 25.4066 179.185H25.4265V179.192C27.0631 179.373 28.9514 179.567 31.0916 179.775H31.1048H31.1181C31.7608 179.842 32.4234 179.909 33.1058 179.969C33.6028 180.016 34.1063 180.063 34.6298 180.11C34.7225 179.935 34.8484 179.768 35.0406 179.621C35.7893 179.031 37.3 178.904 39.5196 179.245C39.8575 179.299 40.2021 179.353 40.5532 179.406C43.9125 179.929 47.8217 180.532 51.3202 180.552C55.0903 180.056 57.787 178.931 59.3374 177.216C62.6636 173.525 64.2538 167.362 63.7038 160.308C63.2135 154.024 61.1131 148.29 58.3634 145.697C48.9548 136.828 26.4999 139.548 22.1004 140.184C13.9307 141.363 10.1076 146.086 8.34517 150.654C8.34517 150.661 8.34517 150.668 8.34517 150.668C7.24529 153.515 6.94713 156.302 6.8875 158.124C6.58933 167.415 8.41143 172.888 12.7977 175.856C14.5602 177.048 16.7069 177.825 19.1982 178.375C20.4837 178.602 22.5509 178.877 25.4066 179.192L25.3934 179.185ZM13.6061 149.154C15.6468 144.659 21.8154 143.111 26.6324 142.609C31.8005 142.066 36.5512 142.575 36.6705 142.589C46.4833 143.091 53.341 145.161 57.0648 148.738C60.424 151.974 60.7818 155.9 60.7156 158.961C60.5433 167.12 58.1779 176.968 52.102 177.886C51.8237 177.926 51.5587 177.946 51.3069 177.946C48.8222 177.946 47.4573 176.01 45.9003 173.806C43.7668 170.785 41.355 167.362 35.3188 167.321C33.139 167.308 30.0116 167.562 27.8781 169.921C23.6707 174.59 21.1992 176.834 15.3089 172.768C9.38543 168.675 9.7896 157.548 13.5994 149.147L13.6061 149.154Z" fill="#00A6B1"/>
<path d="M33.4104 188.315C33.4435 188.315 33.4767 188.315 33.5164 188.315C35.9746 188.289 38.0684 188.115 39.7447 187.786C41.2686 187.492 42.0372 187.157 42.3486 186.996C39.6917 186.614 37.7768 185.998 36.4119 185.113C35.7957 184.718 35.3584 184.316 35.047 183.934C34.9542 183.934 34.8548 183.934 34.7621 183.934C33.1321 183.934 31.1974 183.78 29.1434 183.479C27.1093 183.177 25.1083 182.434 23.3723 181.596C23.9355 182.695 27.1159 188.315 33.417 188.315H33.4104Z" fill="#05286A"/>
<path d="M17.9124 203.489C20.6952 204.038 22.577 203.288 23.8293 201.131C23.9618 200.903 24.0413 200.548 24.0744 200.046L24.0148 200.059C23.4052 200.24 22.6101 200.092 21.815 199.67C21.762 199.644 21.709 199.61 21.656 199.583C20.1055 198.679 18.8864 196.951 18.4027 194.961C18.3762 194.84 18.3497 194.72 18.3232 194.593C18.3166 194.546 18.31 194.499 18.3033 194.459C18.2901 194.372 18.2768 194.291 18.2636 194.204C18.2569 194.15 18.2503 194.09 18.2437 194.03C18.2371 193.949 18.2238 193.876 18.2172 193.789C18.2172 193.722 18.2039 193.655 18.2039 193.588C18.2039 193.507 18.1907 193.434 18.1907 193.353C18.1907 193.28 18.1907 193.213 18.1841 193.139C18.1841 193.059 18.1841 192.985 18.1774 192.898C18.1774 192.824 18.1774 192.744 18.1774 192.663C18.1774 192.583 18.1774 192.503 18.1774 192.422C18.1774 192.342 18.1774 192.255 18.1774 192.174C18.1774 192.094 18.1774 192.013 18.1841 191.926C18.1841 191.839 18.1907 191.752 18.1973 191.665C18.1973 191.585 18.2106 191.498 18.2106 191.417C18.2106 191.33 18.2238 191.236 18.2304 191.143C18.2371 191.056 18.2437 190.975 18.2569 190.888C18.2636 190.794 18.2768 190.701 18.2901 190.6C18.2967 190.513 18.31 190.426 18.3232 190.339C18.3365 190.245 18.3497 190.144 18.363 190.044C18.3762 189.957 18.3895 189.863 18.4027 189.776C18.416 189.676 18.4292 189.575 18.4491 189.475C18.4623 189.381 18.4822 189.287 18.4955 189.193C18.5154 189.093 18.5286 188.992 18.5485 188.885C18.5684 188.791 18.5816 188.691 18.6015 188.59C18.6214 188.49 18.6412 188.389 18.6611 188.289C18.681 188.188 18.7075 188.081 18.7274 187.974C18.7473 187.874 18.7671 187.773 18.7936 187.679C18.8201 187.565 18.8466 187.452 18.8731 187.338C18.893 187.244 18.9129 187.15 18.9394 187.056C18.9394 187.036 18.946 187.023 18.9527 187.003C17.442 190.098 14.626 197.239 14.5995 197.319C14.1754 198.391 14.3212 199.784 15.0037 201.05C15.6994 202.343 16.7926 203.248 17.9257 203.475L17.9124 203.489Z" fill="#FBA993"/>
<path d="M22.1664 182.548C22.7296 182.247 23.0476 181.885 23.1272 181.476C20.0793 179.976 17.8861 178.227 17.853 178.2L17.8199 178.174C17.4488 178.073 17.0778 177.966 16.7266 177.852C15.9845 178.167 15.3021 178.468 15.2954 178.468C15.2424 178.488 10.0147 180.833 7.42398 183.399C4.92605 185.871 6.20484 189.167 6.29097 189.374C6.41686 189.515 8.30522 191.498 12.3403 189.039C14.2088 187.894 16.6007 186.34 19.4631 184.41C21.0466 183.332 22.1598 182.561 22.173 182.548H22.1664Z" fill="#FBA993"/>
<path d="M14.2157 198.887C13.3014 199.644 6.74846 205.124 5.39017 208.118C5.09201 208.781 5.2444 209.565 5.84072 210.443C5.88048 210.503 5.92023 210.557 5.96661 210.617L14.5868 200.522C14.3681 199.979 14.2423 199.423 14.2157 198.887Z" fill="#FC7E89"/>
<path d="M42.554 186.883C42.6402 186.896 42.7197 186.909 42.8058 186.916L43.051 179.922C42.1896 179.795 41.3481 179.668 40.5332 179.54C40.182 179.487 39.8374 179.433 39.4995 179.38C38.6912 179.259 37.9822 179.192 37.3726 179.192C36.3324 179.192 35.5837 179.373 35.1265 179.728C34.6362 180.117 34.5898 180.619 34.5501 180.987C34.5434 181.054 34.5368 181.121 34.5302 181.175L34.5169 181.262C34.4043 181.979 34.1658 183.479 36.4848 184.987C37.863 185.878 39.8176 186.501 42.5408 186.869H42.554V186.883Z" fill="#FC7E89"/>
<path d="M46.7482 180.398L46.5229 187.231C47.5765 187.284 48.7028 187.311 49.922 187.324C50.0943 187.324 50.2599 187.324 50.4256 187.324L50.2003 180.666C49.0673 180.625 47.9077 180.525 46.7482 180.404V180.398Z" fill="#00A6B1"/>
<path d="M23.5447 151.204L25.9499 150.34C26.2746 150.226 26.4468 149.858 26.3342 149.529C26.2215 149.201 25.8571 149.027 25.5325 149.141L23.1273 150.005C22.8026 150.119 22.6304 150.487 22.743 150.815C22.8556 151.144 23.2201 151.318 23.5447 151.204Z" fill="#05286A"/>
<path d="M22.0738 140.037C26.4932 139.4 48.9944 136.68 58.4561 145.59C61.2323 148.209 63.3459 153.977 63.8429 160.294C64.3994 167.388 62.796 173.585 59.4433 177.31C58.0121 178.904 55.6202 179.982 52.3272 180.545C53.6524 180.505 54.898 180.371 56.0111 180.103C60.3974 179.031 64.1543 173.411 64.5584 167.301C64.6181 166.357 64.6777 165.004 64.7373 163.342C64.797 154.801 61.928 146.776 56.7532 141.142C51.5586 135.488 44.1443 132.366 35.3254 132.125C24.2868 131.824 17.5351 136.881 13.818 141.175C11.4261 143.942 9.94189 146.756 9.13354 148.598C9.41845 148.075 9.72987 147.553 10.0744 147.044C12.7247 143.172 16.7599 140.82 22.0738 140.05V140.037Z" fill="#05286A"/>
<path d="M6.73477 158.111C6.77452 156.885 6.90704 155.425 7.23833 153.87C6.7944 154.105 5.31022 154.956 3.93205 156.49C2.42137 158.165 0.725158 161.018 1.24197 165.105C2.28222 173.405 7.37085 174.617 11.2072 174.751C7.86116 171.562 6.46974 166.317 6.73477 158.111Z" fill="#FC7E89"/>
<path d="M53.2613 187.177C53.2083 186.527 52.8041 181.497 52.6053 180.666C52.1879 180.679 51.7639 180.686 51.3332 180.686C51.0085 180.686 50.6772 180.679 50.3459 180.666L50.5712 187.318C51.5187 187.311 52.4132 187.264 53.2679 187.177H53.2613Z" fill="#00A6B1"/>
<path d="M24.5382 162.344C23.8425 162.344 23.2727 162.92 23.2727 163.624V167.268C23.2727 167.971 23.8425 168.548 24.5382 168.548C25.2339 168.548 25.8038 167.971 25.8038 167.268V163.624C25.8038 162.92 25.2339 162.344 24.5382 162.344Z" fill="#05286A"/>
<path d="M47.6956 170.014C48.5503 170.135 49.3388 169.525 49.4514 168.668L49.955 164.983C50.0743 164.119 49.4713 163.322 48.6232 163.208C48.2124 163.148 47.8016 163.262 47.4703 163.516C47.139 163.771 46.927 164.139 46.8674 164.561L46.3638 168.246C46.3042 168.661 46.4168 169.076 46.6686 169.411C46.9204 169.746 47.2848 169.961 47.7022 170.021L47.6956 170.014Z" fill="#05286A"/>
<path d="M47.55 151.451L49.922 152.403C50.0744 152.463 50.2467 152.463 50.3991 152.396C50.5515 152.329 50.6707 152.208 50.737 152.048C50.8629 151.719 50.7105 151.351 50.3858 151.224L48.0138 150.272C47.9409 150.239 47.8614 150.225 47.7819 150.225C47.6957 150.225 47.6162 150.246 47.5367 150.279C47.3843 150.346 47.2651 150.467 47.1988 150.627C47.0729 150.956 47.2253 151.324 47.55 151.451Z" fill="#05286A"/>
<path d="M39.7646 187.921C38.0883 188.249 35.9812 188.43 33.5164 188.457C33.4833 188.457 33.4436 188.457 33.4104 188.457C26.9967 188.457 23.7831 182.722 23.2332 181.644C23.1073 182.039 22.776 182.387 22.2393 182.669C22.2393 182.669 22.0803 182.776 21.8086 182.97C21.4707 183.848 21.2322 184.886 21.1063 186.052C21.1063 186.072 20.9075 188.316 21.8616 190.754C22.7363 192.998 24.7903 195.872 29.6072 196.817C34.4308 197.761 37.3992 196.89 39.0357 195.993C40.8048 195.021 41.4475 193.816 41.4542 193.802C41.4674 193.769 42.9649 189.187 43.0576 187.083C42.892 187.063 42.7329 187.043 42.5739 187.023C42.4282 187.117 41.6728 187.552 39.7712 187.921H39.7646Z" fill="#05286A"/>
<path d="M56.0374 180.23C55.0303 180.478 53.9172 180.612 52.7444 180.666C52.9498 181.603 53.3473 186.487 53.4003 187.17C55.4742 186.943 57.2897 186.474 58.9859 185.697C58.6546 185.107 56.5741 181.349 56.3024 180.163C56.2163 180.19 56.1302 180.217 56.0374 180.237V180.23Z" fill="#00A6B1"/>
<path d="M63.4652 172.647C62.9749 173.873 62.3587 175.005 61.6431 176.01C63.6043 176.238 65.7577 179.467 66.1221 180.043C67.2021 178.71 68.0701 177.256 68.7459 175.776C68.4345 175.421 65.433 172.091 63.4652 172.647Z" fill="#00A6B1"/>
<path d="M61.5436 176.144C60.1257 178.093 58.35 179.527 56.4285 180.116C56.6869 181.269 58.8071 185.1 59.1053 185.63C61.1328 184.678 62.988 183.298 64.9095 181.382C65.307 180.987 65.6781 180.579 66.0226 180.157C65.751 179.735 63.485 176.285 61.537 176.144H61.5436Z" fill="#00A6B1"/>
<path d="M50.2266 187.465C50.1272 187.465 50.0278 187.465 49.9218 187.465C47.9738 187.451 46.2445 187.378 44.7073 187.257C44.8133 187.599 45.1313 187.987 45.6481 188.403C45.7144 188.449 52.857 193.34 54.3478 193.601C56.3024 193.943 58.7606 193.876 59.2642 192.576C59.8406 191.096 59.7015 188.088 57.9523 186.272C55.7127 187.103 53.2281 187.465 50.2199 187.465H50.2266Z" fill="#FBA993"/>
<path d="M70.3759 127.744C67.1624 127.355 66.9835 128.481 66.8377 129.379C66.5329 131.274 66.2745 133.713 66.0625 136.439C66.5263 136.5 71.5222 137.123 72.6552 137.022C72.8142 134.463 72.9533 132.192 73.0461 130.437C73.0461 130.343 73.0594 130.243 73.066 130.149C73.1455 129.184 73.2382 128.086 70.3759 127.737V127.744Z" fill="#FC7E89"/>
<path d="M46.6092 180.384C45.4563 180.257 44.3034 180.103 43.1836 179.942L42.9385 186.929C43.9787 187.057 45.1184 187.157 46.3839 187.224L46.6092 180.384Z" fill="#00A6B1"/>
<path d="M66.049 136.587C65.5057 143.54 65.2274 152.316 65.022 158.747C64.969 160.455 64.916 161.996 64.8696 163.335C64.8696 163.824 64.8564 164.313 64.8299 164.809H64.81C64.7702 165.814 64.7305 166.651 64.6841 167.301C64.6709 167.509 64.651 167.717 64.6311 167.924C65.1943 167.984 69.1102 168.413 70.6805 168.192C70.7003 167.924 70.7136 167.663 70.7202 167.408C70.76 166.115 70.9919 162.344 71.2967 157.628C71.1575 157.648 70.9588 157.655 70.7003 157.655C69.0373 157.655 65.2937 157.286 65.1082 157.266L65.1214 157.126C65.1744 157.126 70.3823 157.641 71.3033 157.481C71.4491 155.203 71.6147 152.704 71.787 150.165C72.0851 145.67 72.3899 141.088 72.6351 137.183C72.5556 137.183 72.4562 137.189 72.3435 137.189C70.7997 137.189 66.5327 136.66 66.0358 136.593L66.049 136.587Z" fill="#FC7E89"/>
<path d="M19.5095 203.797C18.9994 203.797 18.4627 203.737 17.8862 203.63C16.7068 203.395 15.5804 202.464 14.8649 201.138C14.7853 200.984 14.7125 200.829 14.6396 200.675L6.0459 210.737C7.72885 212.914 11.658 215.145 14.4739 215.949L21.7159 203.348C21.0666 203.65 20.3311 203.804 19.5029 203.804L19.5095 203.797Z" fill="#FC7E89"/>
<path d="M64.6248 168.058C64.4525 169.599 64.0748 171.093 63.5315 172.486C65.5259 172.044 68.322 175.086 68.8056 175.635C69.932 173.116 70.5085 170.53 70.6807 168.326C70.3495 168.373 69.932 168.387 69.4682 168.387C67.6329 168.387 65.0886 168.105 64.6248 168.052V168.058Z" fill="#00A6B1"/>
<path d="M37.2136 204.828C36.7498 204.828 36.2529 204.741 35.7361 204.574C35.4975 204.493 35.2723 204.406 35.0536 204.306L34.7886 210.174C35.7361 210.167 36.5047 210.067 36.8492 209.873C37.3859 209.571 37.6244 207.769 37.525 204.815C37.4256 204.822 37.3196 204.828 37.2136 204.828Z" fill="#FC7E89"/>
<path d="M21.9478 203.228L14.6196 215.983C15.269 216.157 15.8587 216.257 16.3357 216.257C16.4086 216.257 16.4749 216.257 16.5411 216.257C19.6354 216.05 23.8163 204.146 24.0813 201.011C24.0813 200.964 24.0813 200.923 24.0813 200.877C24.0415 201.004 23.9951 201.118 23.9421 201.212C23.4055 202.136 22.7362 202.806 21.9411 203.235L21.9478 203.228Z" fill="#FC7E89"/>
<path d="M31.3828 200.575C31.1443 200.434 30.9124 200.287 30.6739 200.133L26.9568 208.593C27.3212 208.734 27.7188 208.835 28.05 208.922C28.3813 209.009 28.6729 209.082 28.8319 209.17C30.0775 209.819 32.6947 210.181 34.6427 210.181L34.9144 204.253C32.5225 203.107 31.4888 200.823 31.3828 200.582V200.575Z" fill="#FC7E89"/>
<path d="M29.9052 199.583C29.8324 199.577 29.5541 199.536 29.1234 199.516C28.8385 199.938 25.7376 204.594 25.6912 207.334C25.6846 207.923 26.208 208.292 26.8309 208.546L30.5612 200.059C30.3425 199.911 30.1239 199.751 29.9052 199.59V199.583Z" fill="#FC7E89"/>
<path d="M38.4065 201.553C37.7373 201.894 36.9687 202.055 36.1405 202.055C34.7425 202.055 33.1722 201.586 31.5952 200.695C31.9265 201.372 33.1854 203.609 35.7761 204.44C37.0615 204.855 38.1746 204.742 38.9962 204.119C40.116 203.268 40.6858 201.519 40.6659 199.068C40.1359 200.22 39.3805 201.057 38.4132 201.546L38.4065 201.553Z" fill="#FBA993"/>
<path d="M39.1022 196.121C37.9493 196.757 36.1537 197.373 33.5299 197.373C32.377 197.373 31.065 197.253 29.5742 196.965C24.691 196.007 22.6105 193.086 21.7227 190.808C20.7619 188.336 20.9607 186.065 20.9607 186.045C21.08 184.947 21.2986 183.962 21.6034 183.111C21.1263 183.439 20.4107 183.928 19.556 184.511C19.4566 185.241 19.3506 185.931 19.2181 186.454L19.2049 186.501C18.3037 190.011 18.0652 192.999 18.5356 194.928C19.0127 196.878 20.2053 198.572 21.7227 199.463C22.5376 199.939 23.3592 200.106 23.9688 199.932L24.1212 199.892C27.1426 199.048 29.9122 199.45 29.9387 199.457H29.9585L29.9718 199.47C32.9865 201.774 36.1934 202.525 38.3402 201.44C40.3412 200.428 41.4079 197.889 41.4278 194.097C41.1562 194.499 40.4604 195.377 39.0955 196.127L39.1022 196.121Z" fill="#05286A"/>
<path d="M27.8844 169.927C30.0113 167.569 33.1453 167.315 35.3252 167.328C41.3613 167.368 43.7797 170.792 45.9066 173.813C47.4637 176.017 48.8286 177.953 51.3132 177.953C51.565 177.953 51.8301 177.933 52.1083 177.892C58.1842 176.975 60.543 167.127 60.7219 158.968C60.7882 155.907 60.4304 151.974 57.0711 148.745C53.3474 145.168 46.4897 143.098 36.6768 142.596C36.5576 142.582 31.8002 142.073 26.6387 142.616C21.8218 143.118 15.6531 144.666 13.6124 149.161C9.79592 157.561 9.39175 168.695 15.3218 172.781C21.2122 176.847 23.6836 174.603 27.891 169.934L27.8844 169.927ZM13.7317 149.208C15.7459 144.773 21.8681 143.246 26.6454 142.743C31.84 142.2 36.6106 142.723 36.657 142.723C46.4367 143.225 53.2679 145.282 56.9651 148.839C60.2846 152.035 60.6358 155.927 60.5695 158.961C60.3972 167.067 58.0649 176.847 52.0752 177.752C49.1599 178.194 47.7022 176.124 46.0126 173.732C43.8592 170.684 41.4209 167.228 35.3185 167.188C35.2655 167.188 35.2125 167.188 35.1595 167.188C32.9664 167.188 29.892 167.489 27.7784 169.834C25.7177 172.118 23.995 173.913 22.0934 174.53C20.2117 175.139 18.1444 174.563 15.3881 172.661C9.52426 168.614 9.94169 157.561 13.7317 149.214V149.208Z" fill="black"/>
<path d="M24.5387 162.203C23.7635 162.203 23.1406 162.84 23.1406 163.624V167.268C23.1406 168.052 23.7701 168.688 24.5387 168.688C25.3073 168.688 25.9367 168.052 25.9367 167.268V163.624C25.9367 162.84 25.3073 162.203 24.5387 162.203ZM25.8042 167.261C25.8042 167.965 25.2344 168.541 24.5387 168.541C23.843 168.541 23.2731 167.965 23.2731 167.261V163.617C23.2731 162.914 23.843 162.337 24.5387 162.337C25.2344 162.337 25.8042 162.914 25.8042 163.617V167.261Z" fill="black"/>
<path d="M47.6758 170.148C47.7553 170.162 47.8282 170.162 47.9077 170.162C48.7426 170.162 49.4714 169.539 49.5907 168.675L50.0942 164.99C50.2201 164.052 49.5708 163.181 48.6432 163.054C48.1926 162.994 47.7487 163.108 47.3843 163.389C47.0198 163.664 46.7879 164.072 46.7283 164.521L46.2247 168.206C46.1651 168.661 46.2778 169.11 46.556 169.478C46.8277 169.847 47.2319 170.081 47.6758 170.142V170.148ZM46.3573 168.232L46.8608 164.548C46.9205 164.133 47.1325 163.758 47.4638 163.503C47.7951 163.248 48.2059 163.141 48.6167 163.195C49.4714 163.315 50.0677 164.113 49.9485 164.97L49.4449 168.654C49.3256 169.519 48.5372 170.122 47.689 170.001C47.2782 169.941 46.9072 169.726 46.6554 169.391C46.4036 169.056 46.2976 168.641 46.3506 168.226L46.3573 168.232Z" fill="black"/>
<path d="M47.497 151.579L49.869 152.53C49.9618 152.57 50.0545 152.584 50.1539 152.584C50.2599 152.584 50.3593 152.564 50.4587 152.523C50.6442 152.443 50.79 152.289 50.8695 152.101C51.0285 151.706 50.8364 151.251 50.4388 151.097L48.0668 150.145C47.8746 150.072 47.6692 150.072 47.4837 150.152C47.2982 150.232 47.1524 150.386 47.0729 150.574C46.9139 150.969 47.1061 151.425 47.5036 151.579H47.497ZM47.1988 150.628C47.2584 150.467 47.3777 150.346 47.5367 150.279C47.6162 150.246 47.7024 150.226 47.7819 150.226C47.8614 150.226 47.9409 150.239 48.0138 150.273L50.3858 151.224C50.7105 151.351 50.8629 151.726 50.737 152.048C50.6774 152.209 50.5581 152.329 50.3991 152.396C50.2401 152.463 50.0744 152.463 49.922 152.403L47.55 151.452C47.2253 151.324 47.0729 150.949 47.1988 150.628Z" fill="black"/>
<path d="M23.3391 151.385C23.4252 151.385 23.5114 151.372 23.5975 151.338L26.0027 150.474C26.4002 150.333 26.6122 149.884 26.4665 149.482C26.4002 149.288 26.2611 149.134 26.0756 149.04C25.89 148.953 25.6846 148.94 25.4925 149.007L23.0873 149.871C22.6898 150.012 22.4777 150.461 22.6235 150.862C22.7361 151.177 23.0277 151.378 23.3457 151.378L23.3391 151.385ZM23.1271 150.012L25.5322 149.148C25.8569 149.034 26.2147 149.201 26.334 149.536C26.4466 149.864 26.281 150.226 25.9497 150.347L23.5445 151.211C23.2198 151.325 22.862 151.157 22.7428 150.822C22.6301 150.494 22.7958 150.132 23.1271 150.012Z" fill="black"/>
<path d="M70.3888 127.603C67.0427 127.195 66.844 128.447 66.6982 129.358C65.6049 136.118 65.1676 149.73 64.8827 158.74C64.8562 159.517 64.8363 160.254 64.8098 160.964C64.3792 153.28 61.5698 146.166 56.8522 141.035C54.3477 138.308 51.3329 136.158 47.9008 134.644C44.1771 133.003 39.9498 132.105 35.325 131.978C30.4219 131.844 25.9495 132.741 22.0204 134.644C18.8797 136.164 16.077 138.335 13.6983 141.081C9.86862 145.509 8.37119 150.058 8.20554 150.574C7.79474 151.632 7.48996 152.684 7.26468 153.696C7.0129 153.823 5.34982 154.694 3.81926 156.389C2.28869 158.083 0.57261 160.977 1.09605 165.124C2.1628 173.645 7.45683 174.784 11.3528 174.898C11.7702 175.28 12.2208 175.641 12.6978 175.963C13.8242 176.72 15.0964 177.316 16.5143 177.785C15.8252 178.073 15.2355 178.341 15.2289 178.341C15.1759 178.361 9.92825 180.719 7.31769 183.298C4.68724 185.911 6.13829 189.401 6.15817 189.434L6.17142 189.455C6.17142 189.455 6.97977 190.399 8.6561 190.399C9.61022 190.399 10.8559 190.098 12.3997 189.153C14.2417 188.028 16.5938 186.5 19.3965 184.611C19.3038 185.288 19.2044 185.924 19.0785 186.406C17.6672 189.099 14.4736 197.198 14.4404 197.279C14.2682 197.714 14.1886 198.197 14.1953 198.706C13.7778 199.047 6.67498 204.896 5.25043 208.057C4.93239 208.768 5.08479 209.598 5.71424 210.523C7.64898 213.363 13.6321 216.391 16.3288 216.391C16.4017 216.391 16.4679 216.391 16.5342 216.391C18.4358 216.264 20.4699 212.144 21.5168 209.699C23.0275 206.168 24.0876 202.437 24.2069 201.01C24.2201 200.823 24.2069 200.642 24.1539 200.468C24.1737 200.327 24.187 200.173 24.2003 200.005C26.1019 199.483 27.8975 199.456 28.951 199.503C28.4673 200.226 25.585 204.654 25.5387 207.327C25.5188 208.406 27.0162 208.794 28.0035 209.056C28.3281 209.143 28.6064 209.216 28.7522 209.29C30.0376 209.96 32.6283 210.322 34.5895 210.322C35.6364 210.322 36.5044 210.215 36.8953 209.993C37.6374 209.571 37.7169 206.945 37.644 204.795C38.1741 204.728 38.6511 204.541 39.0619 204.226C40.2678 203.308 40.8575 201.419 40.778 198.753C41.3015 197.46 41.5665 195.812 41.5599 193.842C41.6261 193.628 43.0706 189.187 43.1699 187.096C43.6072 187.15 44.0644 187.197 44.5415 187.237C44.6409 187.626 44.9722 188.041 45.5486 188.51C45.8401 188.711 52.784 193.467 54.3013 193.735C54.5995 193.789 55.4012 193.909 56.289 193.909C57.5413 193.909 58.9659 193.661 59.3701 192.623C59.9531 191.116 59.8206 188.075 58.0648 186.212C60.5362 185.268 62.7161 183.74 64.9821 181.483C69.1232 177.343 70.7267 171.495 70.8393 167.402C70.8923 165.472 71.3893 158.036 71.9061 150.165C72.403 142.662 72.9132 134.905 73.1517 130.457C73.1517 130.363 73.165 130.269 73.1716 130.169C73.2511 129.191 73.3505 127.972 70.3623 127.61L70.3888 127.603ZM13.811 141.162C17.5281 136.868 24.2798 131.81 35.3184 132.112C44.1439 132.353 51.5516 135.468 56.7462 141.128C61.921 146.762 64.79 154.787 64.7303 163.329C64.6707 164.997 64.6111 166.35 64.5514 167.288C64.1473 173.397 60.3904 179.018 56.0041 180.089C54.891 180.364 53.6453 180.498 52.3202 180.532C55.6132 179.975 58.0051 178.89 59.4363 177.296C62.789 173.578 64.3924 167.375 63.8358 160.281C63.3389 153.964 61.2253 148.196 58.4491 145.576C48.994 136.667 26.4862 139.387 22.0667 140.023C16.7528 140.793 12.7177 143.145 10.0674 147.017C9.71623 147.526 9.40482 148.048 9.12653 148.571C9.93488 146.735 11.4124 143.915 13.811 141.148V141.162ZM50.3391 180.665C50.6704 180.679 51.0016 180.686 51.3263 180.686C51.757 180.686 52.181 180.686 52.5985 180.665C52.7972 181.489 53.2014 186.527 53.2544 187.177C52.3997 187.264 51.5052 187.311 50.5577 187.318L50.3324 180.665H50.3391ZM50.4252 187.318C50.2596 187.318 50.0873 187.318 49.9216 187.318C48.7025 187.311 47.5761 187.277 46.5226 187.224L46.7479 180.391C47.9074 180.518 49.0669 180.612 50.1999 180.652L50.4252 187.311V187.318ZM1.24182 165.104C0.73163 161.011 2.42121 158.157 3.9319 156.482C5.31006 154.948 6.80087 154.097 7.23818 153.863C6.91351 155.417 6.77437 156.878 6.73461 158.103C6.46958 166.31 7.861 171.555 11.207 174.744C7.37732 174.61 2.28207 173.397 1.24182 165.097V165.104ZM12.784 175.842C8.39769 172.875 6.56897 167.408 6.87376 158.11C6.93339 156.288 7.23155 153.501 8.33143 150.654C8.33143 150.654 8.33143 150.648 8.33143 150.641C10.0939 146.079 13.917 141.356 22.0866 140.17C26.4928 139.534 48.941 136.821 58.3497 145.684C61.106 148.276 63.1998 154.01 63.6901 160.294C64.24 167.348 62.6498 173.511 59.3237 177.202C57.7799 178.924 55.0765 180.042 51.3064 180.538C47.808 180.518 43.8988 179.909 40.5395 179.393C40.1883 179.339 39.8438 179.286 39.5059 179.232C37.2862 178.89 35.7755 179.018 35.0268 179.607C34.8347 179.754 34.7088 179.922 34.616 180.096C34.0992 180.049 33.589 180.002 33.0921 179.955C32.4096 179.888 31.7404 179.828 31.1043 179.761H31.0911H31.0778C28.9377 179.553 27.0493 179.359 25.4128 179.178L25.3929 179.172C25.3929 179.172 25.3863 179.172 25.3796 179.172C22.5305 178.857 20.4567 178.582 19.1713 178.354C16.68 177.805 14.5398 177.028 12.7707 175.836L12.784 175.842ZM34.9274 183.787C33.2644 183.801 31.2766 183.64 29.1497 183.332C24.1936 182.601 19.4164 179.205 18.2171 178.307C18.4557 178.368 18.7605 178.428 19.1315 178.495C22.4974 179.239 26.4928 179.567 31.0315 179.942C31.0646 179.942 31.1043 179.942 31.1375 179.949H31.1441C31.1507 179.949 31.1574 179.955 31.164 179.962C31.1772 179.962 31.1905 179.975 31.1971 179.982L31.217 179.955C32.297 180.042 33.4101 180.136 34.5498 180.237C34.4438 180.505 34.4173 180.766 34.3974 180.974C34.3974 181.041 34.3841 181.101 34.3775 181.155L34.3642 181.242C34.2781 181.778 34.1323 182.722 34.9208 183.787H34.9274ZM29.1299 183.472C31.1839 183.774 33.1186 183.928 34.7485 183.928C34.8479 183.928 34.9407 183.928 35.0335 183.928C35.3449 184.31 35.7888 184.712 36.3984 185.107C37.7633 185.991 39.6781 186.607 42.3351 186.989C42.0237 187.15 41.2551 187.485 39.7311 187.78C38.0614 188.108 35.9677 188.289 33.5029 188.309C33.4698 188.309 33.4366 188.309 33.3969 188.309C27.0957 188.309 23.9153 182.689 23.3521 181.59C25.0947 182.427 27.0957 183.171 29.1232 183.472H29.1299ZM36.4712 184.993C34.1522 183.486 34.3907 181.992 34.5034 181.268L34.5166 181.181C34.5233 181.128 34.5299 181.061 34.5365 180.994C34.5696 180.625 34.6226 180.116 35.113 179.734C35.5635 179.379 36.3189 179.198 37.3591 179.198C37.9687 179.198 38.6776 179.259 39.486 179.386C39.8239 179.44 40.1685 179.493 40.5196 179.547C41.328 179.674 42.1761 179.801 43.0374 179.929L42.7923 186.922C42.7061 186.909 42.6266 186.902 42.5405 186.889H42.5272C39.804 186.514 37.8494 185.897 36.4712 185.006V184.993ZM12.3268 189.032C8.29168 191.498 6.40332 189.508 6.27743 189.367C6.19792 189.16 4.91914 185.871 7.41045 183.392C10.0011 180.826 15.2289 178.488 15.2819 178.462C15.2885 178.462 15.9644 178.16 16.7131 177.845C17.0709 177.959 17.4353 178.066 17.8063 178.167L17.8395 178.194C17.8726 178.22 20.0657 179.969 23.1136 181.469C23.0341 181.878 22.7094 182.24 22.1529 182.541C22.1396 182.548 21.0265 183.325 19.4429 184.404C16.5872 186.333 14.1886 187.887 12.3202 189.032H12.3268ZM14.5729 197.332C14.6061 197.259 17.4154 190.111 18.9261 187.016C18.9261 187.036 18.9195 187.05 18.9129 187.07C18.893 187.163 18.8665 187.257 18.8466 187.351C18.8201 187.465 18.7936 187.579 18.7671 187.693C18.7472 187.793 18.7273 187.894 18.7008 187.987C18.6809 188.095 18.6544 188.195 18.6346 188.302C18.6147 188.403 18.5948 188.503 18.5749 188.604C18.5551 188.704 18.5352 188.798 18.5219 188.898C18.5021 188.999 18.4888 189.099 18.4689 189.207C18.4557 189.3 18.4358 189.394 18.4225 189.488C18.4093 189.588 18.3894 189.689 18.3762 189.789C18.3629 189.883 18.3497 189.97 18.3364 190.057C18.3232 190.158 18.3099 190.252 18.2967 190.352C18.2834 190.439 18.2768 190.526 18.2635 190.613C18.2503 190.707 18.2436 190.801 18.2304 190.901C18.2238 190.989 18.2171 191.069 18.2039 191.156C18.1973 191.25 18.1906 191.337 18.184 191.431C18.184 191.518 18.1708 191.598 18.1708 191.679C18.1708 191.766 18.1575 191.853 18.1575 191.94C18.1575 192.02 18.1575 192.101 18.1509 192.188C18.1509 192.268 18.1509 192.355 18.1509 192.436C18.1509 192.516 18.1509 192.596 18.1509 192.677C18.1509 192.757 18.1509 192.831 18.1509 192.911C18.1509 192.992 18.1509 193.072 18.1575 193.152C18.1575 193.226 18.1575 193.3 18.1641 193.367C18.1641 193.447 18.1774 193.527 18.1774 193.601C18.1774 193.668 18.184 193.735 18.1906 193.802C18.1973 193.883 18.2105 193.963 18.2171 194.043C18.2238 194.104 18.2304 194.157 18.237 194.217C18.2503 194.305 18.2635 194.392 18.2768 194.472C18.2834 194.519 18.29 194.566 18.2967 194.606C18.3232 194.733 18.3497 194.854 18.3762 194.974C18.8598 196.964 20.079 198.692 21.6294 199.597C21.6824 199.63 21.7354 199.657 21.7885 199.684C22.5836 200.113 23.3787 200.253 23.9882 200.072L24.0479 200.059C24.0214 200.561 23.9418 200.916 23.8027 201.144C22.5438 203.301 20.6687 204.052 17.8859 203.502C16.7462 203.281 15.653 202.37 14.9639 201.077C14.2814 199.811 14.129 198.418 14.5597 197.346L14.5729 197.332ZM5.8335 210.442C5.23055 209.565 5.07816 208.781 5.38295 208.118C6.73461 205.117 13.2875 199.644 14.2085 198.887C14.235 199.423 14.3609 199.979 14.5796 200.521L5.95939 210.616C5.91964 210.556 5.87326 210.503 5.8335 210.442ZM6.04553 210.73L14.6392 200.669C14.7055 200.823 14.7783 200.977 14.8645 201.131C15.5801 202.457 16.7065 203.388 17.8859 203.623C18.4623 203.737 18.999 203.79 19.5092 203.79C20.3374 203.79 21.0729 203.636 21.7222 203.335L14.4802 215.935C11.6576 215.132 7.73511 212.908 6.05216 210.724L6.04553 210.73ZM24.0744 200.997C23.8093 204.132 19.6284 216.043 16.5342 216.244C16.4679 216.244 16.4017 216.244 16.3288 216.244C15.8451 216.244 15.262 216.143 14.6127 215.969L21.9408 203.214C22.7426 202.785 23.4052 202.109 23.9418 201.191C23.9948 201.097 24.0412 200.99 24.081 200.856C24.081 200.903 24.081 200.943 24.081 200.99L24.0744 200.997ZM25.6844 207.327C25.7308 204.581 28.8317 199.932 29.1166 199.51C29.5473 199.536 29.8256 199.57 29.8984 199.577C30.1171 199.744 30.3358 199.898 30.5544 200.046L26.8241 208.533C26.2012 208.279 25.6712 207.91 25.6844 207.321V207.327ZM28.8251 209.163C28.666 209.082 28.3745 209.002 28.0432 208.915C27.7119 208.828 27.321 208.727 26.95 208.587L30.667 200.126C30.8989 200.28 31.1375 200.427 31.376 200.568C31.482 200.809 32.5156 203.094 34.9076 204.239L34.6359 210.168C32.6879 210.168 30.0707 209.806 28.8251 209.156V209.163ZM36.8357 209.873C36.4911 210.067 35.7159 210.168 34.775 210.174L35.0401 204.306C35.2587 204.407 35.484 204.494 35.7225 204.574C36.246 204.741 36.7429 204.829 37.2001 204.829C37.3061 204.829 37.4055 204.829 37.5115 204.815C37.6109 207.776 37.3657 209.571 36.8357 209.873ZM38.9891 204.118C38.1675 204.748 37.0543 204.855 35.7689 204.44C33.1782 203.603 31.9127 201.365 31.588 200.695C33.165 201.586 34.7419 202.055 36.1333 202.055C36.9616 202.055 37.7302 201.888 38.3994 201.553C39.3667 201.064 40.1221 200.226 40.6521 199.074C40.6786 201.526 40.1022 203.274 38.9824 204.125L38.9891 204.118ZM38.3397 201.426C36.193 202.511 32.9861 201.76 29.9713 199.456L29.9581 199.443H29.9382C29.9382 199.443 27.1421 199.034 24.1207 199.878L23.9683 199.918C23.3521 200.099 22.5372 199.925 21.7222 199.449C20.2049 198.565 19.0122 196.87 18.5352 194.914C18.0647 192.985 18.3033 189.997 19.2044 186.487L19.2176 186.44C19.3502 185.917 19.4562 185.227 19.5556 184.497C20.4103 183.914 21.1259 183.425 21.6029 183.097C21.2981 183.948 21.0795 184.933 20.9602 186.031C20.9602 186.051 20.7615 188.329 21.7222 190.794C22.6101 193.072 24.6906 195.993 29.5738 196.951C31.0646 197.245 32.3765 197.359 33.5294 197.359C36.1532 197.359 37.9554 196.736 39.1017 196.107C40.4732 195.356 41.169 194.479 41.434 194.077C41.4075 197.868 40.3407 200.407 38.3464 201.419L38.3397 201.426ZM41.4406 193.809C41.4406 193.809 40.7913 195.028 39.0222 195.999C37.3856 196.897 34.4173 197.768 29.5937 196.823C24.7767 195.879 22.7227 193.005 21.8481 190.761C20.9006 188.322 21.0927 186.078 21.0927 186.058C21.2186 184.893 21.4572 183.854 21.7951 182.977C22.0734 182.789 22.2258 182.675 22.2258 182.675C22.7624 182.387 23.0937 182.045 23.2196 181.65C23.7696 182.729 26.9831 188.463 33.3969 188.463C33.43 188.463 33.4698 188.463 33.5029 188.463C35.9743 188.436 38.0747 188.262 39.751 187.927C41.6526 187.559 42.408 187.123 42.5537 187.029C42.7128 187.05 42.8718 187.07 43.0374 187.09C42.9447 189.193 41.4472 193.775 41.434 193.809H41.4406ZM42.938 186.936L43.1832 179.949C44.303 180.109 45.4558 180.264 46.6087 180.391L46.3835 187.23C45.1246 187.163 43.9783 187.07 42.938 186.936ZM59.264 192.583C58.7605 193.883 56.3023 193.943 54.3477 193.608C52.8569 193.347 45.7209 188.456 45.648 188.409C45.1312 187.987 44.8131 187.606 44.7071 187.264C46.2443 187.391 47.9737 187.458 49.9216 187.472C50.021 187.472 50.127 187.472 50.2264 187.472C53.2345 187.472 55.7192 187.11 57.9588 186.279C59.708 188.095 59.8471 191.102 59.2707 192.583H59.264ZM53.3936 187.17C53.3406 186.487 52.9496 181.603 52.7376 180.665C53.917 180.612 55.0235 180.478 56.0306 180.23C56.1168 180.21 56.2029 180.183 56.2957 180.156C56.5673 181.349 58.6478 185.107 58.9791 185.69C57.2829 186.46 55.4674 186.936 53.3936 187.163V187.17ZM64.9092 181.396C62.9944 183.312 61.1391 184.698 59.105 185.643C58.8069 185.114 56.6866 181.282 56.4282 180.13C58.343 179.54 60.1254 178.1 61.5433 176.157C63.4847 176.298 65.7573 179.754 66.029 180.17C65.6778 180.592 65.3068 181 64.9159 181.396H64.9092ZM66.1151 180.056C65.7441 179.48 63.5973 176.251 61.6361 176.023C62.3517 175.018 62.9679 173.879 63.4582 172.66C65.4194 172.104 68.4275 175.44 68.7389 175.789C68.0631 177.269 67.2018 178.723 66.1151 180.056ZM68.7986 175.648C68.3083 175.099 65.5188 172.057 63.5244 172.499C64.0677 171.106 64.4454 169.612 64.6177 168.071C65.0815 168.125 67.6192 168.406 69.4612 168.406C69.925 168.406 70.349 168.386 70.6737 168.346C70.5014 170.55 69.925 173.136 68.7986 175.655V175.648ZM71.7934 150.165C71.6278 152.704 71.4622 155.203 71.3098 157.48C70.3888 157.641 65.1809 157.132 65.1279 157.125L65.1146 157.266C65.3002 157.286 69.0437 157.655 70.7068 157.655C70.9586 157.655 71.164 157.648 71.3031 157.628C70.9983 162.344 70.7598 166.115 70.7267 167.408C70.7201 167.663 70.7068 167.924 70.6869 168.192C69.1166 168.413 65.2008 167.991 64.6376 167.924C64.6574 167.716 64.6773 167.509 64.6906 167.301C64.7303 166.651 64.7767 165.814 64.8165 164.809H64.8363C64.8562 164.32 64.8695 163.824 64.8761 163.335C64.9225 161.996 64.9755 160.448 65.0285 158.747C65.2339 152.316 65.5122 143.533 66.0555 136.586C66.5524 136.647 70.8128 137.183 72.3633 137.183C72.4759 137.183 72.5753 137.183 72.6548 137.176C72.4096 141.088 72.1049 145.67 71.8067 150.159L71.7934 150.165ZM73.059 130.162C73.0523 130.263 73.0457 130.356 73.0391 130.45C72.9463 132.205 72.8072 134.47 72.6482 137.035C71.5152 137.129 66.5127 136.513 66.0555 136.452C66.2675 133.726 66.5259 131.288 66.8307 129.392C66.9765 128.487 67.162 127.362 70.3689 127.757C73.2312 128.106 73.1385 129.198 73.059 130.169V130.162Z" fill="black"/>
<path d="M51.3202 180.619C54.6861 180.177 57.6479 179.192 59.3905 177.256C66.8511 168.976 63.9424 150.849 58.4098 145.637C50.2071 137.907 31.6151 138.731 22.0871 140.104C10.3528 141.799 7.03992 150.976 6.80802 158.111C6.12556 179.293 16.601 178.583 34.6762 180.177" stroke="#05286A" stroke-miterlimit="10"/>
<path d="M36.6704 142.663C36.6704 142.663 17.6013 140.54 13.6722 149.188C9.7431 157.836 9.60396 168.756 15.3552 172.721C21.1064 176.687 23.4917 174.704 27.8382 169.888C29.8524 167.65 32.7744 167.248 35.3254 167.262C46.3441 167.336 45.5026 178.818 52.0953 177.826C58.688 176.835 60.5101 165.493 60.6492 158.969C60.7883 152.444 58.8271 143.795 36.6704 142.663Z" stroke="#05286A" stroke-miterlimit="10"/>
<path d="M25.8701 163.617C25.8701 162.874 25.2739 162.271 24.5383 162.271C23.8028 162.271 23.2065 162.874 23.2065 163.617V167.261C23.2065 168.005 23.8028 168.608 24.5383 168.608C25.2739 168.608 25.8701 168.005 25.8701 167.261V163.617Z" stroke="#05286A" stroke-miterlimit="10"/>
<path d="M50.021 164.985C50.1435 164.083 49.5198 163.252 48.628 163.128C47.7361 163.004 46.9139 163.635 46.7914 164.536L46.2902 168.226C46.1677 169.128 46.7914 169.959 47.6832 170.083C48.575 170.207 49.3973 169.576 49.5197 168.675L50.021 164.985Z" stroke="#05286A" stroke-miterlimit="10"/>
<path d="M50.4094 151.163L48.0392 150.209C47.6822 150.065 47.2777 150.241 47.1356 150.602C46.9935 150.963 47.1678 151.372 47.5248 151.516L49.8949 152.47C50.2519 152.613 50.6565 152.437 50.7986 152.076C50.9406 151.715 50.7664 151.306 50.4094 151.163Z" stroke="#05286A" stroke-miterlimit="10"/>
<path d="M23.574 151.268L25.9783 150.407C26.3405 150.277 26.53 149.875 26.4016 149.509C26.2732 149.143 25.8755 148.951 25.5134 149.081L23.1091 149.943C22.7469 150.072 22.5574 150.474 22.6858 150.84C22.8142 151.207 23.2118 151.398 23.574 151.268Z" stroke="#05286A" stroke-miterlimit="10"/>
<path d="M8.26562 150.641C8.26562 150.641 13.8909 131.462 35.3254 132.045C56.7599 132.628 65.4729 149.543 64.7639 164.803" stroke="#05286A" stroke-miterlimit="10"/>
<path d="M7.33797 153.743C7.33797 153.743 0.175466 157.14 1.16934 165.118C2.16321 173.097 6.82778 174.704 11.3863 174.832" stroke="#05286A" stroke-miterlimit="10"/>
<path d="M66.7648 129.372C66.9172 128.421 67.1425 127.282 70.3825 127.677C73.6225 128.073 73.1654 129.399 73.1124 130.451C72.622 139.695 70.906 163.684 70.7999 167.402C70.6939 171.12 69.276 177.129 64.9626 181.436C60.6492 185.744 56.6538 187.445 49.922 187.392C43.1902 187.338 38.9033 186.648 36.4451 185.054C33.9869 183.459 34.358 181.865 34.464 181.175C34.57 180.485 34.305 178.516 39.5129 179.313C44.7208 180.11 51.4526 181.282 56.0244 180.164C60.5962 179.045 64.2338 173.197 64.6247 167.295C65.0156 161.393 65.2276 138.865 66.7715 129.372H66.7648Z" stroke="#05286A" stroke-miterlimit="10"/>
<path d="M16.7135 177.786C15.9515 178.107 15.2624 178.409 15.2624 178.409C15.2624 178.409 10.0015 180.753 7.37107 183.353C4.74062 185.958 6.2248 189.415 6.2248 189.415C6.2248 189.415 8.10653 191.699 12.3669 189.1C14.7323 187.653 17.4953 185.818 19.4897 184.471C21.0931 183.379 22.1996 182.609 22.1996 182.609C22.8357 182.267 23.1405 181.865 23.2068 181.443" stroke="#05286A" stroke-miterlimit="10"/>
<path d="M35.0801 183.861C33.6887 183.881 31.7209 183.781 29.15 183.406C23.3657 182.555 17.8994 178.147 17.8994 178.147C19.6486 178.73 28.7922 179.634 34.6693 180.184" stroke="#05286A" stroke-miterlimit="10"/>
<path d="M57.9792 186.199C59.7748 188.028 59.9074 191.116 59.3309 192.603C58.7545 194.091 55.8656 193.936 54.3351 193.669C52.8111 193.401 45.6089 188.457 45.6089 188.457C45.0059 187.968 44.6945 187.546 44.615 187.171" stroke="#05286A" stroke-miterlimit="10"/>
<path d="M23.2134 181.443C23.2134 181.443 26.3673 188.457 33.5165 188.39C36.359 188.363 38.3666 188.129 39.7514 187.854C41.7656 187.466 42.4879 187.003 42.5541 186.95" stroke="#05286A" stroke-miterlimit="10"/>
<path d="M25.1348 179.346C25.2273 179.313 25.3198 179.279 25.4189 179.246" stroke="#05286A" stroke-miterlimit="10"/>
<path d="M33.1608 180.057C33.1608 180.057 33.1331 180.043 33.1192 180.043C33.1192 180.043 33.1192 180.043 33.1123 180.043" stroke="#05286A" stroke-miterlimit="10"/>
<path d="M43.124 187.017C43.0578 189.134 41.5073 193.843 41.5073 193.843C41.5073 193.843 38.9829 198.733 29.5875 196.898C20.1921 195.056 21.0336 186.052 21.0336 186.052C21.1661 184.84 21.4113 183.808 21.7492 182.937" stroke="#05286A" stroke-miterlimit="10"/>
<path d="M31.2505 179.936C31.2505 179.936 31.1975 179.909 31.1777 179.896C31.1777 179.896 31.1246 179.856 31.0981 179.842" stroke="#05286A" stroke-miterlimit="10"/>
<path d="M41.5075 193.843C41.5605 203.717 34.8816 203.295 29.9322 199.517C29.9322 199.517 27.1825 199.102 24.1412 199.953L23.9888 199.993C22.3191 200.482 19.3375 198.506 18.4695 194.942C17.7208 191.88 18.9399 187.251 19.152 186.434C19.2845 185.918 19.3839 185.235 19.4899 184.465" stroke="#05286A" stroke-miterlimit="10"/>
<path d="M24.1476 199.952C24.1277 200.481 24.0482 200.897 23.8892 201.165C22.4646 203.61 20.3179 204.039 17.8995 203.556C15.4744 203.081 13.5794 199.664 14.5203 197.313C14.5203 197.313 17.7338 189.154 19.1584 186.44C18.9463 187.264 17.7272 191.887 18.4759 194.948C19.3505 198.512 22.3321 200.488 23.9952 199.999C24.0482 199.986 24.0946 199.972 24.1476 199.959V199.952Z" stroke="#05286A" stroke-linecap="round" stroke-linejoin="round"/>
<path d="M40.7254 198.76C40.8645 203.469 38.8702 205.519 35.756 204.508C32.6353 203.503 31.4426 200.522 31.4426 200.522" stroke="#05286A" stroke-miterlimit="10"/>
<path d="M24.1011 200.481C24.1541 200.655 24.1673 200.829 24.1541 201.004C23.9089 203.904 19.7744 216.103 16.5476 216.317C13.3209 216.525 3.85922 211.354 5.33015 208.091C6.80108 204.829 14.275 198.753 14.275 198.753C14.275 198.753 14.275 198.751 14.275 198.746" stroke="#05286A" stroke-miterlimit="10"/>
<path d="M37.5916 204.742C37.6578 206.618 37.6313 209.512 36.8826 209.934C35.7562 210.57 30.714 210.215 28.8057 209.224C28.2028 208.909 25.6055 208.694 25.6254 207.328C25.6784 204.414 29.0907 199.436 29.0907 199.436" stroke="#05286A" stroke-miterlimit="10"/>
<path d="M66.0161 136.513C66.0161 136.513 71.5023 137.21 72.675 137.103" stroke="#05286A" stroke-miterlimit="10"/>
<path d="M65.1282 157.193C65.1282 157.193 70.5017 157.722 71.3631 157.541" stroke="#05286A" stroke-miterlimit="10"/>
<path d="M64.5583 167.985C64.5583 167.985 69.0772 168.514 70.7469 168.253" stroke="#05286A" stroke-miterlimit="10"/>
<path d="M68.8254 175.763C68.8254 175.763 65.539 171.931 63.4121 172.587" stroke="#05286A" stroke-miterlimit="10"/>
<path d="M66.1156 180.164C66.1156 180.164 63.6442 176.178 61.5173 176.071" stroke="#05286A" stroke-miterlimit="10"/>
<path d="M59.0855 185.731C59.0855 185.731 56.5611 181.242 56.3557 180.07" stroke="#05286A" stroke-miterlimit="10"/>
<path d="M53.3343 187.244C53.3343 187.244 52.8638 181.303 52.6584 180.599" stroke="#05286A" stroke-miterlimit="10"/>
<path d="M50.4979 187.399L50.2666 180.599" stroke="#05286A" stroke-miterlimit="10"/>
<path d="M46.45 187.298L46.6812 180.324" stroke="#05286A" stroke-miterlimit="10"/>
<path d="M43.1232 179.829L42.8721 186.997" stroke="#05286A" stroke-miterlimit="10"/>
<path d="M5.96655 210.731L14.6662 200.542" stroke="#05286A" stroke-miterlimit="10"/>
<path d="M14.5203 216.016L21.8882 203.181" stroke="#05286A" stroke-miterlimit="10"/>
<path d="M26.8708 208.634L30.6542 200.026" stroke="#05286A" stroke-miterlimit="10"/>
<path d="M34.709 210.255L34.9865 204.206" stroke="#05286A" stroke-miterlimit="10"/>
<path d="M46.0558 181.115C48.2514 181.115 50.0313 179.315 50.0313 177.096C50.0313 174.876 48.2514 173.076 46.0558 173.076C43.8602 173.076 42.0803 174.876 42.0803 177.096C42.0803 179.315 43.8602 181.115 46.0558 181.115Z" fill="#E2DAC5"/>
<path d="M46.0558 179.939C47.6086 179.939 48.8674 178.666 48.8674 177.096C48.8674 175.526 47.6086 174.254 46.0558 174.254C44.5029 174.254 43.2441 175.526 43.2441 177.096C43.2441 178.666 44.5029 179.939 46.0558 179.939Z" fill="#4DCEC9"/>
<path d="M44.8388 177.046C45.7196 177.046 46.4335 176.324 46.4335 175.433C46.4335 174.543 45.7196 173.821 44.8388 173.821C43.9581 173.821 43.2441 174.543 43.2441 175.433C43.2441 176.324 43.9581 177.046 44.8388 177.046Z" fill="#E2DAC5"/>
<path d="M68.5834 187.814C70.0472 187.814 71.2338 186.614 71.2338 185.135C71.2338 183.655 70.0472 182.455 68.5834 182.455C67.1197 182.455 65.9331 183.655 65.9331 185.135C65.9331 186.614 67.1197 187.814 68.5834 187.814Z" fill="#E2DAC5"/>
<path d="M68.5836 187.03C69.6188 187.03 70.458 186.181 70.458 185.135C70.458 184.088 69.6188 183.24 68.5836 183.24C67.5484 183.24 66.7092 184.088 66.7092 185.135C66.7092 186.181 67.5484 187.03 68.5836 187.03Z" fill="#4DCEC9"/>
<path d="M67.7724 185.101C68.3595 185.101 68.8355 184.619 68.8355 184.026C68.8355 183.432 68.3595 182.951 67.7724 182.951C67.1852 182.951 66.7092 183.432 66.7092 184.026C66.7092 184.619 67.1852 185.101 67.7724 185.101Z" fill="#E2DAC5"/>
<path d="M44.7306 136.232C46.9262 136.232 48.7061 134.433 48.7061 132.213C48.7061 129.993 46.9262 128.194 44.7306 128.194C42.535 128.194 40.7551 129.993 40.7551 132.213C40.7551 134.433 42.535 136.232 44.7306 136.232Z" fill="#E2DAC5"/>
<path d="M44.7308 135.056C46.2836 135.056 47.5424 133.783 47.5424 132.213C47.5424 130.643 46.2836 129.37 44.7308 129.37C43.178 129.37 41.9192 130.643 41.9192 132.213C41.9192 133.783 43.178 135.056 44.7308 135.056Z" fill="#4DCEC9"/>
<path d="M43.5139 132.162C44.3946 132.162 45.1086 131.44 45.1086 130.55C45.1086 129.66 44.3946 128.938 43.5139 128.938C42.6332 128.938 41.9192 129.66 41.9192 130.55C41.9192 131.44 42.6332 132.162 43.5139 132.162Z" fill="#E2DAC5"/>
<path d="M43.4054 120.155C45.601 120.155 47.3809 118.355 47.3809 116.136C47.3809 113.916 45.601 112.116 43.4054 112.116C41.2098 112.116 39.4299 113.916 39.4299 116.136C39.4299 118.355 41.2098 120.155 43.4054 120.155Z" fill="#E2DAC5"/>
<path d="M43.4056 118.978C44.9584 118.978 46.2172 117.705 46.2172 116.135C46.2172 114.565 44.9584 113.293 43.4056 113.293C41.8528 113.293 40.594 114.565 40.594 116.135C40.594 117.705 41.8528 118.978 43.4056 118.978Z" fill="#4DCEC9"/>
<path d="M42.1887 116.085C43.0694 116.085 43.7834 115.363 43.7834 114.473C43.7834 113.582 43.0694 112.86 42.1887 112.86C41.308 112.86 40.594 113.582 40.594 114.473C40.594 115.363 41.308 116.085 42.1887 116.085Z" fill="#E2DAC5"/>
<path d="M57.9822 132.213C62.0075 132.213 65.2706 128.914 65.2706 124.844C65.2706 120.774 62.0075 117.475 57.9822 117.475C53.957 117.475 50.6938 120.774 50.6938 124.844C50.6938 128.914 53.957 132.213 57.9822 132.213Z" fill="#E2DAC5"/>
<path d="M57.9823 130.056C60.8291 130.056 63.1369 127.723 63.1369 124.844C63.1369 121.966 60.8291 119.633 57.9823 119.633C55.1354 119.633 52.8276 121.966 52.8276 124.844C52.8276 127.723 55.1354 130.056 57.9823 130.056Z" fill="#4DCEC9"/>
<path d="M55.7512 124.752C57.3659 124.752 58.6749 123.429 58.6749 121.796C58.6749 120.164 57.3659 118.84 55.7512 118.84C54.1366 118.84 52.8276 120.164 52.8276 121.796C52.8276 123.429 54.1366 124.752 55.7512 124.752Z" fill="#E2DAC5"/>
<defs>
<linearGradient id="paint0_linear_155_2339" x1="19.5261" y1="153.948" x2="23.9445" y2="156.646" gradientUnits="userSpaceOnUse">
<stop stop-color="white" stop-opacity="0"/>
<stop offset="0.52" stop-color="white"/>
<stop offset="1" stop-color="white" stop-opacity="0"/>
</linearGradient>
<linearGradient id="paint1_linear_155_2339" x1="26.4029" y1="154.453" x2="37.9792" y2="161.522" gradientUnits="userSpaceOnUse">
<stop stop-color="white" stop-opacity="0"/>
<stop offset="0.52" stop-color="white"/>
<stop offset="1" stop-color="white" stop-opacity="0"/>
</linearGradient>
<linearGradient id="paint2_linear_155_2339" x1="45.6144" y1="155.106" x2="50.0329" y2="157.804" gradientUnits="userSpaceOnUse">
<stop stop-color="white" stop-opacity="0"/>
<stop offset="0.52" stop-color="white"/>
<stop offset="1" stop-color="white" stop-opacity="0"/>
</linearGradient>
</defs>
</svg>
