<svg width="180" height="180" viewBox="0 0 180 180" fill="none" xmlns="http://www.w3.org/2000/svg">
<path d="M26.0632 74.962C26.8379 73.8 27.4759 72.7177 27.9772 71.7152C28.5012 70.7126 29.0025 69.5506 29.481 68.2291C31.0987 69.1633 32.9784 69.8924 35.1202 70.4164C37.262 70.9405 39.2556 71.2025 41.1012 71.2025C42.9923 71.2025 44.3252 71.043 45.0999 70.724C45.8746 70.3822 46.262 70.0177 46.262 69.6303C46.262 68.2405 44.143 67.5455 39.905 67.5455C35.2569 67.5455 31.8847 67.0671 29.7885 66.1101C27.6923 65.1303 26.6442 63.5582 26.6442 61.3936C26.6442 58.3177 27.9202 56.0506 30.4721 54.5924C33.024 53.1341 36.3392 52.405 40.4177 52.405C42.7873 52.405 45.2139 52.7126 47.6974 53.3278C50.2037 53.9202 52.4594 54.7405 54.4645 55.7886C53.8037 57.2924 53.1088 59.1266 52.3797 61.2911C52.243 61.7468 52.129 62.0886 52.0379 62.3164C50.8759 61.3822 49.1214 60.6076 46.7746 59.9924C44.4278 59.3544 42.3544 59.0354 40.5544 59.0354C38.3898 59.0354 36.9316 59.1835 36.1797 59.4797C35.4278 59.7531 35.0518 60.1633 35.0518 60.7101C35.0518 61.2569 35.5645 61.7012 36.5898 62.043C37.6379 62.362 39.1417 62.5215 41.1012 62.5215C45.9316 62.5215 49.4404 63.0797 51.6278 64.1962C53.8151 65.2898 54.9088 66.9759 54.9088 69.2544C54.9088 72.4443 53.7468 74.7455 51.4227 76.1582C49.0987 77.5481 45.5784 78.243 40.862 78.243C38.3328 78.243 35.7582 77.9696 33.1379 77.4228C30.5177 76.8531 28.1594 76.0329 26.0632 74.962ZM77.3915 59.2405C74.9308 65.8709 72.7434 72.0911 70.8295 77.9012H60.132C58.0814 71.681 55.8827 65.4607 53.5358 59.2405H61.5675L65.532 73.3215L69.4624 59.2405H77.3915ZM92.4105 69.3569H81.2685C81.4508 70.3595 81.8951 71.1797 82.6016 71.8177C83.3307 72.4329 84.3561 72.7405 85.6776 72.7405C86.6345 72.7405 87.5345 72.5582 88.3776 72.1936C89.2206 71.8063 89.8928 71.2709 90.394 70.5873C91.9206 71.3392 93.9485 72.1481 96.4776 73.0139C95.7712 74.6088 94.4839 75.8848 92.6155 76.8417C90.77 77.7759 88.3548 78.243 85.37 78.243C81.4964 78.243 78.6255 77.3544 76.7571 75.5772C74.9116 73.7772 73.9888 71.419 73.9888 68.5025C73.9888 65.6544 74.9116 63.3417 76.7571 61.5645C78.6027 59.7873 81.4736 58.8987 85.37 58.8987C87.694 58.8987 89.7105 59.286 91.4193 60.0607C93.1282 60.8354 94.4383 61.9177 95.3497 63.3076C96.2611 64.6747 96.7168 66.2468 96.7168 68.024C96.7168 68.6164 96.694 69.0607 96.6485 69.3569H92.4105ZM85.8485 64.0595C84.7092 64.0595 83.775 64.2759 83.0459 64.7088C82.3166 65.1417 81.804 65.7341 81.5078 66.486H89.5738C89.3004 65.7569 88.8561 65.1759 88.2409 64.743C87.6257 64.2873 86.8282 64.0595 85.8485 64.0595ZM111.297 58.8987C112.778 58.8987 114.111 59.3202 115.296 60.1633C116.48 61.0063 117.403 62.1569 118.064 63.6152C118.725 65.0506 119.055 66.6341 119.055 68.3658C119.055 70.0747 118.725 71.6924 118.064 73.219C117.403 74.7228 116.469 75.9417 115.261 76.8759C114.077 77.7873 112.721 78.243 111.194 78.243C109.417 78.243 107.89 77.8784 106.615 77.1493C105.361 76.3974 104.427 75.2468 103.812 73.6974C103.812 74.9962 103.858 77.081 103.949 79.9519C104.04 82.7316 104.085 84.6911 104.085 85.8303H96.3614C96.4981 81.5924 96.5664 77.1607 96.5664 72.5354C96.5664 67.9101 96.4981 63.4784 96.3614 59.2405H102.923L103.915 63.5126C104.553 61.9177 105.509 60.7557 106.785 60.0265C108.061 59.2747 109.565 58.8987 111.297 58.8987ZM107.64 72.0911C108.665 72.0911 109.52 71.7721 110.203 71.1341C110.909 70.4734 111.263 69.619 111.263 68.5709C111.263 67.4088 110.944 66.4633 110.306 65.7341C109.668 65.005 108.802 64.6405 107.708 64.6405C106.455 64.6405 105.509 64.9481 104.872 65.5633C104.234 66.1557 103.915 67.1582 103.915 68.5709C103.915 69.3683 104.12 70.0405 104.53 70.5873C104.94 71.1114 105.43 71.4987 105.999 71.7493C106.569 71.9772 107.116 72.0911 107.64 72.0911ZM140.634 72.2278C140.634 73.0025 140.725 73.5493 140.907 73.8683C141.09 74.1873 141.454 74.4152 142.001 74.5519L141.864 77.7645C141.135 77.8784 140.497 77.9582 139.95 78.0038C139.426 78.0493 138.72 78.0721 137.831 78.0721C135.872 78.0721 134.573 77.6392 133.935 76.7734C133.297 75.8848 132.978 74.7569 132.978 73.3898V72.5354C132.318 74.4038 131.349 75.7936 130.073 76.705C128.82 77.6164 127.214 78.0721 125.254 78.0721C122.976 78.0721 121.255 77.6164 120.093 76.705C118.954 75.7936 118.385 74.4379 118.385 72.6379C118.385 71.1569 118.874 69.9949 119.854 69.1519C120.834 68.3088 122.349 67.7278 124.4 67.4088C122.668 66.1784 120.936 65.1076 119.205 64.1962C120.572 62.4645 122.133 61.1544 123.887 60.2658C125.642 59.3544 127.772 58.8987 130.278 58.8987C133.787 58.8987 136.385 59.662 138.071 61.1886C139.78 62.6924 140.634 65.0164 140.634 68.1607V72.2278ZM130.996 64.9139C129.834 64.9139 128.809 65.1076 127.92 65.4949C127.031 65.8822 126.234 66.4633 125.528 67.2379C126.895 67.0784 128.604 66.9987 130.654 66.9987C131.497 66.9987 132.09 66.8962 132.431 66.6911C132.773 66.486 132.944 66.224 132.944 65.905C132.944 65.6316 132.773 65.4038 132.431 65.2215C132.09 65.0164 131.611 64.9139 130.996 64.9139ZM127.407 72.5012C128.683 72.5012 129.834 72.262 130.859 71.7835C131.885 71.2822 132.591 70.6329 132.978 69.8354V68.9468C132.431 69.2202 131.828 69.4367 131.167 69.5962C130.506 69.7329 129.709 69.8696 128.774 70.0063L127.544 70.2114C126.268 70.462 125.63 70.8949 125.63 71.5101C125.63 72.1709 126.223 72.5012 127.407 72.5012Z" fill="black"/>
<path d="M62.0405 101.335C67.2355 101.335 69.8329 102.987 69.8329 106.291C69.8329 107.84 69.4798 109.162 68.7734 110.256C68.0671 111.327 66.8026 112.17 64.9798 112.785C63.157 113.377 60.6279 113.673 57.3924 113.673H42.0127C42.195 109.253 42.2861 105.118 42.2861 101.267C42.2861 97.4164 42.195 93.281 42.0127 88.8607H50.0443V88.8949H57.3241C60.1494 88.8949 62.3709 89.1341 63.9886 89.6126C65.6291 90.0683 66.7798 90.7405 67.4405 91.6291C68.1241 92.5177 68.4658 93.6455 68.4658 95.0126C68.4658 96.4025 67.976 97.6443 66.9962 98.7379C66.0393 99.8088 64.3874 100.675 62.0405 101.335ZM50.0443 95.1151V98.2936H56.6064C58.019 98.2936 58.9988 98.1683 59.5456 97.9177C60.1152 97.667 60.4 97.2114 60.4 96.5506C60.4 96.0265 60.1038 95.662 59.5114 95.4569C58.9418 95.2291 57.9734 95.1151 56.6064 95.1151H50.0443ZM56.6064 107.419C57.7912 107.419 58.6912 107.373 59.3064 107.282C59.9443 107.168 60.4 106.986 60.6734 106.735C60.9469 106.462 61.0836 106.097 61.0836 105.642C61.0836 105.049 60.7532 104.628 60.0924 104.377C59.4545 104.104 58.2924 103.967 56.6064 103.967H50.0443V107.419H56.6064ZM83.557 114.015C79.6608 114.015 76.7899 113.127 74.9443 111.349C73.1215 109.549 72.2101 107.191 72.2101 104.275C72.2101 101.427 73.1215 99.1139 74.9443 97.3367C76.7899 95.5595 79.6608 94.6708 83.557 94.6708C86.1772 94.6708 88.3646 95.1038 90.119 95.9696C91.8962 96.8126 93.2063 97.9632 94.0494 99.4215C94.8924 100.857 95.3139 102.475 95.3139 104.275C95.3139 107.214 94.3342 109.572 92.3747 111.349C90.438 113.127 87.4987 114.015 83.557 114.015ZM83.6937 108.205C85.1747 108.205 86.2798 107.852 87.0089 107.146C87.738 106.439 88.1025 105.494 88.1025 104.309C88.1025 103.192 87.738 102.281 87.0089 101.575C86.2798 100.846 85.1747 100.481 83.6937 100.481C82.2127 100.481 81.1304 100.834 80.4468 101.54C79.7633 102.247 79.4215 103.17 79.4215 104.309C79.4215 105.494 79.7633 106.439 80.4468 107.146C81.1304 107.852 82.2127 108.205 83.6937 108.205ZM113.2 101.13C111.104 100.994 109.19 100.891 107.458 100.823L107.424 104.446C107.424 105.676 107.686 106.644 108.21 107.351C108.757 108.034 109.714 108.376 111.081 108.376C111.605 108.376 112.106 108.33 112.585 108.239C112.494 109.082 112.448 109.937 112.448 110.802C112.448 111.213 112.471 112.147 112.516 113.605C111.514 113.787 110.671 113.901 109.987 113.947C109.304 113.992 108.415 114.015 107.322 114.015C104.656 114.015 102.765 113.377 101.648 112.101C100.554 110.802 100.008 109.002 100.008 106.701L100.042 100.925C98.9709 100.971 97.8543 101.039 96.6922 101.13V95.081C97.8771 95.081 98.8798 94.705 99.7 93.9531C100.52 93.2012 101.01 92.3012 101.17 91.2531H110.466C109.304 92.8481 108.016 94.124 106.604 95.081H113.2V101.13ZM130.722 101.13C128.626 100.994 126.712 100.891 124.98 100.823L124.946 104.446C124.946 105.676 125.208 106.644 125.732 107.351C126.279 108.034 127.236 108.376 128.603 108.376C129.127 108.376 129.628 108.33 130.107 108.239C130.016 109.082 129.97 109.937 129.97 110.802C129.97 111.213 129.993 112.147 130.039 113.605C129.036 113.787 128.193 113.901 127.509 113.947C126.826 113.992 125.937 114.015 124.844 114.015C122.178 114.015 120.287 113.377 119.17 112.101C118.077 110.802 117.53 109.002 117.53 106.701L117.564 100.925C116.493 100.971 115.377 101.039 114.215 101.13V95.081C115.399 95.081 116.402 94.705 117.222 93.9531C118.042 93.2012 118.532 92.3012 118.692 91.2531H127.988C126.826 92.8481 125.539 94.124 124.126 95.081H130.722V101.13ZM150.842 105.129H139.7C139.883 106.132 140.327 106.952 141.033 107.59C141.762 108.205 142.788 108.513 144.109 108.513C145.066 108.513 145.966 108.33 146.809 107.966C147.652 107.578 148.325 107.043 148.826 106.359C150.352 107.111 152.38 107.92 154.909 108.786C154.203 110.381 152.916 111.657 151.047 112.614C149.202 113.548 146.787 114.015 143.802 114.015C139.928 114.015 137.057 113.127 135.189 111.349C133.343 109.549 132.421 107.191 132.421 104.275C132.421 101.427 133.343 99.1139 135.189 97.3367C137.035 95.5595 139.906 94.6708 143.802 94.6708C146.126 94.6708 148.142 95.0582 149.851 95.8329C151.56 96.6076 152.87 97.6898 153.781 99.0797C154.693 100.447 155.149 102.019 155.149 103.796C155.149 104.389 155.126 104.833 155.08 105.129H150.842ZM144.28 99.8316C143.141 99.8316 142.207 100.048 141.478 100.481C140.749 100.914 140.236 101.506 139.94 102.258H148.006C147.732 101.529 147.288 100.948 146.673 100.515C146.057 100.059 145.26 99.8316 144.28 99.8316ZM170.857 113.673C170.994 110.324 171.062 107.237 171.062 104.411C171.062 103.409 170.811 102.611 170.31 102.019C169.832 101.427 169.216 101.13 168.465 101.13C167.713 101.13 167.075 101.472 166.551 102.156C166.027 102.816 165.719 103.728 165.628 104.89C165.582 106.621 165.56 107.852 165.56 108.581C165.56 110.13 165.605 111.828 165.696 113.673H157.528C157.71 110.392 157.801 107.294 157.801 104.377C157.801 101.461 157.71 98.3392 157.528 95.0126C159.032 95.081 160.182 95.1151 160.98 95.1151C161.823 95.1151 162.973 95.081 164.432 95.0126L165.423 100.037C165.947 98.2139 166.767 96.8696 167.884 96.0038C169 95.1151 170.299 94.6708 171.78 94.6708C173.147 94.6708 174.332 94.9784 175.334 95.5936C176.337 96.186 177.089 96.9949 177.59 98.0202C178.114 99.0455 178.376 100.196 178.376 101.472V106.394C178.376 109.424 178.433 111.851 178.547 113.673H170.857Z" fill="black"/>
<path d="M13.0192 99.4155C14.1024 99.0644 15.0836 98.0417 16.2574 96.7405C17.4614 95.405 19.2126 95.2333 20.4619 95.2333C20.4921 95.2333 20.5223 95.2333 20.5525 95.2333C24.0323 95.2562 25.4212 97.2252 26.644 98.9614C27.6064 100.324 28.4367 101.503 30.0974 101.251C33.5093 100.736 34.8378 95.1646 34.9359 90.5474C34.9737 88.8188 34.7736 86.6018 32.8827 84.7817C30.7767 82.7554 26.8856 81.584 21.3148 81.2978C21.2884 81.2978 18.5672 81.0001 15.612 81.3092C12.8908 81.5954 9.40348 82.4654 8.25613 84.9915C6.09729 89.7461 5.85951 96.0422 9.19967 98.347C10.7697 99.4307 11.9473 99.7589 13.0192 99.4116V99.4155ZM27.2441 85.77C27.2856 85.6593 27.3687 85.5753 27.4781 85.5296C27.5838 85.4838 27.7046 85.48 27.8102 85.5257L29.1614 86.0676C29.3841 86.1592 29.4935 86.4148 29.4067 86.64C29.3652 86.7506 29.2822 86.8346 29.1727 86.8804C29.1161 86.9033 29.0595 86.9147 28.9991 86.9147C28.9463 86.9147 28.8897 86.9033 28.8368 86.8842L27.4856 86.3423C27.263 86.2508 27.1535 85.9951 27.2403 85.77H27.2441ZM26.761 95.8171L27.0478 93.7184C27.0818 93.4589 27.2139 93.23 27.4215 93.0735C27.6291 92.9171 27.8819 92.8484 28.1386 92.8827C28.667 92.9552 29.0368 93.4513 28.9651 93.9855L28.6783 96.0842C28.6104 96.5726 28.1952 96.9313 27.7197 96.9313C27.6744 96.9313 27.6328 96.9313 27.5876 96.9237C27.3309 96.8894 27.1045 96.752 26.9497 96.5459C26.795 96.3361 26.727 96.0804 26.761 95.8209V95.8171ZM15.2044 95.2753C15.2044 95.7217 14.8459 96.0842 14.4081 96.0842C13.9703 96.0842 13.6117 95.7217 13.6117 95.2753V93.1994C13.6117 92.753 13.9703 92.3905 14.4081 92.3905C14.8459 92.3905 15.2044 92.753 15.2044 93.1994V95.2753ZM13.574 85.3731L14.944 84.8809C15.0535 84.8427 15.1705 84.8465 15.2761 84.8999C15.3818 84.9496 15.4611 85.0411 15.4988 85.1518C15.5781 85.3807 15.4611 85.6326 15.2346 85.7165L13.8646 86.2088C13.8155 86.2279 13.7665 86.2355 13.7174 86.2355C13.5362 86.2355 13.3702 86.121 13.306 85.9417C13.2267 85.7127 13.3437 85.4609 13.5702 85.3769L13.574 85.3731Z" fill="#FBA993"/>
<path d="M19.1592 80.9012L16.6543 79.3376L6.45345 96.0431L8.9584 97.6066L19.1592 80.9012Z" fill="url(#paint0_linear_155_2339)"/>
<path d="M28.9479 80.5807L22.3997 76.4934L8.4238 99.381L14.972 103.468L28.9479 80.5807Z" fill="url(#paint1_linear_155_2339)"/>
<path d="M33.5899 82.2642L31.085 80.7007L21.7684 95.958L24.2733 97.5215L33.5899 82.2642Z" fill="url(#paint2_linear_155_2339)"/>
<path d="M20.0203 103.193C20.0241 103.163 20.0279 103.129 20.0316 103.09C20.043 102.972 20.0581 102.823 20.1184 102.671C19.4693 102.613 18.8352 102.56 18.22 102.51L18.2087 102.526C18.2087 102.526 18.1974 102.518 18.1898 102.514C18.1861 102.514 18.1823 102.51 18.1785 102.507H18.171C18.1521 102.503 18.1294 102.499 18.1106 102.499C15.5253 102.285 13.2494 102.098 11.3321 101.675C11.1208 101.637 10.9472 101.602 10.8113 101.568C11.4944 102.079 14.2156 104.014 17.0387 104.43C18.2464 104.605 19.3825 104.697 20.3298 104.689C19.8807 104.083 19.9637 103.544 20.0128 103.239L20.0203 103.19V103.193Z" fill="#FBA993"/>
<path d="M14.8948 102.067C14.8948 102.067 14.8986 102.067 14.9024 102.067H14.9137V102.071C15.8459 102.174 16.9216 102.285 18.1407 102.403H18.1482H18.1558C18.5218 102.441 18.8993 102.48 19.288 102.514C19.5711 102.541 19.8579 102.567 20.1561 102.594C20.2089 102.495 20.2806 102.399 20.3901 102.316C20.8166 101.98 21.6771 101.907 22.9414 102.102C23.1339 102.132 23.3302 102.163 23.5302 102.193C25.4437 102.491 27.6705 102.834 29.6633 102.846C31.8108 102.564 33.3469 101.922 34.23 100.946C36.1247 98.8431 37.0305 95.3325 36.7172 91.3144C36.438 87.7351 35.2415 84.4688 33.6752 82.992C28.3159 77.9398 15.5251 79.4891 13.0191 79.8516C8.36549 80.5232 6.18778 83.2134 5.18384 85.8158C5.18384 85.8196 5.18384 85.8234 5.18384 85.8234C4.55733 87.4451 4.38749 89.0325 4.35352 90.0704C4.18368 95.363 5.22158 98.4806 7.7201 100.171C8.72404 100.85 9.94688 101.293 11.366 101.606C12.0982 101.736 13.2757 101.892 14.9024 102.071L14.8948 102.067ZM8.18055 84.961C9.34301 82.4006 12.8568 81.5191 15.6006 81.2329C18.5445 80.9238 21.2506 81.2139 21.3185 81.2215C26.9081 81.5077 30.8144 82.6868 32.9355 84.7244C34.849 86.5675 35.0528 88.8036 35.0151 90.5474C34.917 95.1951 33.5696 100.804 30.1086 101.327C29.9501 101.35 29.7991 101.362 29.6557 101.362C28.2404 101.362 27.4629 100.259 26.576 99.0034C25.3607 97.2824 23.9869 95.3325 20.5486 95.3096C19.3069 95.302 17.5255 95.447 16.3102 96.7902C13.9136 99.4498 12.5058 100.728 9.15052 98.4119C5.77639 96.0804 6.00662 89.7423 8.17678 84.9572L8.18055 84.961Z" fill="#00A6B1"/>
<path d="M19.4616 107.268C19.4804 107.268 19.4993 107.268 19.5219 107.268C20.9222 107.253 22.1148 107.154 23.0697 106.967C23.9378 106.799 24.3756 106.608 24.5529 106.517C23.0395 106.299 21.9488 105.948 21.1713 105.444C20.8203 105.219 20.5712 104.99 20.3938 104.773C20.3409 104.773 20.2843 104.773 20.2315 104.773C19.303 104.773 18.201 104.685 17.031 104.513C15.8723 104.342 14.7325 103.918 13.7437 103.441C14.0645 104.067 15.8761 107.268 19.4653 107.268H19.4616Z" fill="#05286A"/>
<path d="M10.6337 115.911C12.2189 116.224 13.2908 115.797 14.0041 114.568C14.0796 114.438 14.1249 114.236 14.1437 113.95L14.1098 113.958C13.7626 114.061 13.3096 113.977 12.8567 113.736C12.8266 113.721 12.7964 113.702 12.7662 113.687C11.883 113.172 11.1885 112.187 10.913 111.054C10.8979 110.985 10.8828 110.916 10.8677 110.844C10.864 110.817 10.8602 110.79 10.8564 110.768C10.8489 110.718 10.8413 110.672 10.8338 110.623C10.83 110.592 10.8262 110.558 10.8225 110.523C10.8187 110.478 10.8111 110.436 10.8074 110.386C10.8074 110.348 10.7998 110.31 10.7998 110.271C10.7998 110.226 10.7923 110.184 10.7923 110.138C10.7923 110.096 10.7923 110.058 10.7885 110.016C10.7885 109.97 10.7885 109.928 10.7847 109.878C10.7847 109.836 10.7847 109.791 10.7847 109.745C10.7847 109.699 10.7847 109.653 10.7847 109.608C10.7847 109.562 10.7847 109.512 10.7847 109.466C10.7847 109.421 10.7847 109.375 10.7885 109.325C10.7885 109.276 10.7923 109.226 10.796 109.176C10.796 109.131 10.8036 109.081 10.8036 109.035C10.8036 108.986 10.8111 108.932 10.8149 108.879C10.8187 108.829 10.8225 108.783 10.83 108.734C10.8338 108.68 10.8413 108.627 10.8489 108.57C10.8526 108.52 10.8602 108.47 10.8677 108.421C10.8753 108.367 10.8828 108.31 10.8904 108.253C10.8979 108.203 10.9055 108.15 10.913 108.1C10.9206 108.043 10.9281 107.986 10.9395 107.929C10.947 107.875 10.9583 107.822 10.9659 107.768C10.9772 107.711 10.9847 107.654 10.9961 107.593C11.0074 107.539 11.0149 107.482 11.0263 107.425C11.0376 107.368 11.0489 107.31 11.0602 107.253C11.0716 107.196 11.0866 107.135 11.098 107.074C11.1093 107.017 11.1206 106.959 11.1357 106.906C11.1508 106.841 11.1659 106.776 11.181 106.711C11.1923 106.658 11.2036 106.604 11.2187 106.551C11.2187 106.54 11.2225 106.532 11.2263 106.521C10.3658 108.283 8.76174 112.351 8.74665 112.397C8.5051 113.007 8.58813 113.801 8.97687 114.522C9.37316 115.259 9.9959 115.774 10.6413 115.904L10.6337 115.911Z" fill="#FBA993"/>
<path d="M13.0569 103.983C13.3777 103.811 13.5588 103.605 13.6041 103.372C11.868 102.518 10.6187 101.522 10.5999 101.507L10.581 101.491C10.3696 101.434 10.1583 101.373 9.95825 101.308C9.53554 101.487 9.1468 101.659 9.14302 101.659C9.11283 101.671 6.13499 103.006 4.65928 104.468C3.23641 105.876 3.96483 107.753 4.01389 107.871C4.0856 107.952 5.16125 109.081 7.45973 107.681C8.52406 107.028 9.88654 106.143 11.517 105.044C12.419 104.429 13.0531 103.991 13.0606 103.983H13.0569Z" fill="#FBA993"/>
<path d="M8.52792 113.29C8.00708 113.721 4.2744 116.843 3.50069 118.548C3.33085 118.926 3.41766 119.373 3.75734 119.873C3.77998 119.907 3.80263 119.937 3.82905 119.972L8.73928 114.221C8.61473 113.912 8.54302 113.595 8.52792 113.29Z" fill="#FC7E89"/>
<path d="M24.67 106.452C24.7191 106.46 24.7644 106.467 24.8134 106.471L24.9531 102.487C24.4624 102.415 23.9831 102.342 23.5189 102.27C23.3189 102.239 23.1226 102.209 22.9301 102.178C22.4697 102.11 22.0658 102.072 21.7186 102.072C21.1261 102.072 20.6996 102.175 20.4392 102.377C20.1599 102.598 20.1334 102.884 20.1108 103.094C20.107 103.132 20.1033 103.171 20.0995 103.201L20.0919 103.251C20.0278 103.659 19.8919 104.514 21.2129 105.372C21.9979 105.88 23.1113 106.235 24.6625 106.445H24.67V106.452Z" fill="#FC7E89"/>
<path d="M27.059 102.758L26.9307 106.65C27.5308 106.681 28.1724 106.696 28.8668 106.704C28.965 106.704 29.0593 106.704 29.1537 106.704L29.0253 102.911C28.38 102.888 27.7195 102.831 27.059 102.762V102.758Z" fill="#00A6B1"/>
<path d="M13.8421 86.1289L15.2121 85.6366C15.397 85.5718 15.4951 85.3619 15.431 85.1749C15.3668 84.9879 15.1592 84.8887 14.9743 84.9536L13.6043 85.4458C13.4193 85.5107 13.3212 85.7206 13.3854 85.9075C13.4495 86.0945 13.6571 86.1937 13.8421 86.1289Z" fill="#05286A"/>
<path d="M13.0041 79.7676C15.5214 79.4051 28.3386 77.8559 33.7282 82.931C35.3096 84.423 36.5135 87.7084 36.7966 91.3068C37.1136 95.3478 36.2003 98.8774 34.2905 100.999C33.4753 101.907 32.1128 102.522 30.237 102.842C30.9919 102.819 31.7014 102.743 32.3355 102.59C34.834 101.98 36.974 98.7782 37.2042 95.2982C37.2382 94.7601 37.2721 93.9893 37.3061 93.043C37.3401 88.1778 35.7058 83.6064 32.7582 80.3972C29.7992 77.1767 25.5759 75.3985 20.5525 75.2611C14.2646 75.0894 10.4187 77.9704 8.30141 80.4163C6.93893 81.9923 6.09351 83.5949 5.63306 84.6443C5.79535 84.3467 5.97273 84.049 6.16899 83.759C7.67867 81.5535 9.97715 80.2141 13.0041 79.7753V79.7676Z" fill="#05286A"/>
<path d="M4.26652 90.0631C4.28917 89.3648 4.36465 88.533 4.55336 87.6477C4.30049 87.7813 3.45507 88.2659 2.67004 89.1397C1.80952 90.0937 0.843327 91.7192 1.13771 94.0469C1.73026 98.7747 4.62884 99.4654 6.8141 99.5417C4.90814 97.7254 4.11555 94.7376 4.26652 90.0631Z" fill="#FC7E89"/>
<path d="M30.769 106.62C30.7389 106.25 30.5086 103.384 30.3954 102.911C30.1576 102.919 29.9161 102.922 29.6708 102.922C29.4858 102.922 29.2971 102.919 29.1084 102.911L29.2367 106.7C29.7764 106.696 30.2859 106.67 30.7728 106.62H30.769Z" fill="#00A6B1"/>
<path d="M14.4079 92.4746C14.0116 92.4746 13.687 92.8028 13.687 93.2034V95.2793C13.687 95.6799 14.0116 96.0081 14.4079 96.0081C14.8042 96.0081 15.1288 95.6799 15.1288 95.2793V93.2034C15.1288 92.8028 14.8042 92.4746 14.4079 92.4746Z" fill="#05286A"/>
<path d="M27.5988 96.8436C28.0857 96.9123 28.5348 96.565 28.599 96.0766L28.8858 93.9779C28.9538 93.4856 28.6103 93.0315 28.1272 92.9667C27.8932 92.9323 27.6592 92.9972 27.4705 93.1422C27.2818 93.2872 27.161 93.4971 27.1271 93.7375L26.8402 95.8362C26.8063 96.0728 26.8704 96.3093 27.0138 96.5001C27.1572 96.6909 27.3648 96.813 27.6026 96.8474L27.5988 96.8436Z" fill="#05286A"/>
<path d="M27.5159 86.2698L28.867 86.8117C28.9539 86.846 29.052 86.846 29.1388 86.8079C29.2256 86.7697 29.2935 86.701 29.3313 86.6094C29.403 86.4225 29.3162 86.2126 29.1312 86.1401L27.7801 85.5982C27.7386 85.5792 27.6933 85.5715 27.648 85.5715C27.5989 85.5715 27.5536 85.583 27.5083 85.6021C27.4215 85.6402 27.3536 85.7089 27.3158 85.8005C27.2441 85.9875 27.3309 86.1973 27.5159 86.2698Z" fill="#05286A"/>
<path d="M23.081 107.043C22.1262 107.23 20.926 107.333 19.522 107.349C19.5031 107.349 19.4805 107.349 19.4616 107.349C15.8082 107.349 13.9777 104.082 13.6644 103.468C13.5927 103.693 13.404 103.891 13.0983 104.052C13.0983 104.052 13.0077 104.113 12.853 104.223C12.6605 104.723 12.5246 105.315 12.4529 105.979C12.4529 105.99 12.3397 107.268 12.8832 108.657C13.3814 109.936 14.5514 111.573 17.2952 112.111C20.0428 112.649 21.7337 112.153 22.6659 111.641C23.6736 111.088 24.0397 110.401 24.0435 110.394C24.051 110.375 24.904 107.765 24.9568 106.566C24.8625 106.555 24.7719 106.543 24.6813 106.532C24.5983 106.585 24.168 106.833 23.0848 107.043H23.081Z" fill="#05286A"/>
<path d="M32.3504 102.663C31.7767 102.804 31.1426 102.88 30.4746 102.911C30.5916 103.445 30.8181 106.227 30.8483 106.616C32.0296 106.486 33.0637 106.219 34.0299 105.777C33.8412 105.441 32.6561 103.3 32.5014 102.625C32.4523 102.64 32.4032 102.655 32.3504 102.667V102.663Z" fill="#00A6B1"/>
<path d="M36.5814 98.3433C36.3021 99.0416 35.9511 99.6865 35.5435 100.259C36.6606 100.389 37.8872 102.228 38.0948 102.556C38.71 101.797 39.2044 100.969 39.5894 100.125C39.412 99.9231 37.7023 98.0266 36.5814 98.3433Z" fill="#00A6B1"/>
<path d="M35.4869 100.335C34.6792 101.445 33.6678 102.262 32.5732 102.598C32.7204 103.254 33.9282 105.437 34.098 105.738C35.2529 105.196 36.3097 104.41 37.4042 103.319C37.6307 103.094 37.842 102.861 38.0383 102.621C37.8835 102.38 36.5928 100.415 35.4831 100.335H35.4869Z" fill="#00A6B1"/>
<path d="M29.0404 106.784C28.9838 106.784 28.9272 106.784 28.8668 106.784C27.7572 106.776 26.7721 106.734 25.8965 106.665C25.9569 106.86 26.138 107.081 26.4324 107.318C26.4702 107.345 30.5387 110.13 31.3879 110.279C32.5013 110.474 33.9016 110.435 34.1884 109.695C34.5167 108.852 34.4375 107.139 33.4411 106.104C32.1654 106.578 30.7501 106.784 29.0366 106.784H29.0404Z" fill="#FBA993"/>
<path d="M40.5178 72.7656C38.6873 72.5442 38.5854 73.1853 38.5024 73.6966C38.3288 74.7765 38.1816 76.1655 38.0608 77.7185C38.325 77.7529 41.1707 78.1077 41.8161 78.0505C41.9067 76.5929 41.986 75.2993 42.0388 74.2995C42.0388 74.2461 42.0463 74.1889 42.0501 74.1354C42.0954 73.586 42.1482 72.9602 40.5178 72.7617V72.7656Z" fill="#FC7E89"/>
<path d="M26.9798 102.751C26.3231 102.678 25.6664 102.59 25.0286 102.499L24.8889 106.479C25.4815 106.551 26.1306 106.608 26.8515 106.647L26.9798 102.751Z" fill="#00A6B1"/>
<path d="M38.0533 77.8025C37.7438 81.7633 37.5853 86.7621 37.4683 90.4253C37.4381 91.3984 37.4079 92.276 37.3815 93.0392C37.3815 93.3178 37.3739 93.5963 37.3588 93.8787H37.3475C37.3249 94.4511 37.3022 94.928 37.2758 95.2982C37.2683 95.4165 37.2569 95.5348 37.2456 95.6531C37.5664 95.6874 39.797 95.9316 40.6914 95.8057C40.7028 95.6531 40.7103 95.5042 40.7141 95.3592C40.7367 94.6228 40.8688 92.4744 41.0424 89.7881C40.9632 89.7995 40.85 89.8033 40.7028 89.8033C39.7554 89.8033 37.623 89.5935 37.5173 89.582L37.5249 89.5019C37.5551 89.5019 40.5216 89.7957 41.0462 89.7041C41.1293 88.4067 41.2236 86.9834 41.3217 85.5372C41.4916 82.9768 41.6652 80.3667 41.8048 78.1421C41.7595 78.1421 41.7029 78.1459 41.6388 78.1459C40.7594 78.1459 38.3288 77.8445 38.0457 77.8063L38.0533 77.8025Z" fill="#FC7E89"/>
<path d="M11.5434 116.087C11.2528 116.087 10.9471 116.053 10.6188 115.992C9.94695 115.858 9.30533 115.328 8.89772 114.572C8.85243 114.484 8.81091 114.397 8.7694 114.309L3.87427 120.04C4.83291 121.28 7.07101 122.551 8.67504 123.009L12.8002 115.831C12.4304 116.003 12.0114 116.091 11.5397 116.091L11.5434 116.087Z" fill="#FC7E89"/>
<path d="M37.2419 95.7294C37.1438 96.607 36.9286 97.458 36.6191 98.2517C37.7552 97.9998 39.3479 99.7322 39.6234 100.045C40.265 98.6104 40.5934 97.1375 40.6915 95.882C40.5028 95.9087 40.265 95.9164 40.0008 95.9164C38.9554 95.9164 37.5061 95.7561 37.2419 95.7256V95.7294Z" fill="#00A6B1"/>
<path d="M21.6282 116.674C21.364 116.674 21.0809 116.625 20.7865 116.529C20.6507 116.484 20.5223 116.434 20.3978 116.377L20.2468 119.72C20.7865 119.716 21.2243 119.658 21.4206 119.548C21.7263 119.376 21.8622 118.35 21.8056 116.667C21.749 116.671 21.6886 116.674 21.6282 116.674Z" fill="#FC7E89"/>
<path d="M12.9323 115.763L8.75806 123.028C9.12793 123.127 9.46383 123.185 9.73557 123.185C9.77709 123.185 9.81483 123.185 9.85257 123.185C11.6151 123.066 13.9966 116.285 14.1476 114.5C14.1476 114.473 14.1476 114.45 14.1476 114.423C14.125 114.496 14.0985 114.561 14.0683 114.614C13.7626 115.141 13.3814 115.522 12.9285 115.767L12.9323 115.763Z" fill="#FC7E89"/>
<path d="M18.3068 114.251C18.1709 114.171 18.0388 114.087 17.903 114L15.7856 118.819C15.9932 118.899 16.2197 118.956 16.4084 119.006C16.5971 119.056 16.7632 119.098 16.8537 119.147C17.5633 119.517 19.0541 119.723 20.1637 119.723L20.3185 116.346C18.956 115.694 18.3672 114.393 18.3068 114.255V114.251Z" fill="#FC7E89"/>
<path d="M17.4649 113.687C17.4234 113.683 17.2648 113.66 17.0195 113.648C16.8572 113.889 15.0909 116.541 15.0645 118.102C15.0607 118.437 15.3589 118.647 15.7136 118.792L17.8385 113.958C17.714 113.874 17.5894 113.782 17.4649 113.69V113.687Z" fill="#FC7E89"/>
<path d="M22.3076 114.809C21.9264 115.003 21.4886 115.095 21.0168 115.095C20.2205 115.095 19.326 114.828 18.4277 114.32C18.6164 114.706 19.3335 115.98 20.8093 116.453C21.5414 116.69 22.1755 116.625 22.6435 116.27C23.2813 115.785 23.6059 114.79 23.5946 113.393C23.2927 114.049 22.8624 114.526 22.3114 114.805L22.3076 114.809Z" fill="#FBA993"/>
<path d="M22.7037 111.714C22.047 112.077 21.0242 112.428 19.5296 112.428C18.8729 112.428 18.1256 112.359 17.2764 112.195C14.4948 111.649 13.3097 109.986 12.804 108.688C12.2567 107.28 12.3699 105.987 12.3699 105.975C12.4379 105.349 12.5624 104.788 12.736 104.304C12.4643 104.491 12.0567 104.769 11.5698 105.101C11.5132 105.517 11.4528 105.91 11.3773 106.208L11.3698 106.235C10.8565 108.234 10.7206 109.936 10.9886 111.035C11.2603 112.145 11.9397 113.111 12.804 113.618C13.2682 113.889 13.7362 113.985 14.0834 113.885L14.1702 113.863C15.8913 113.382 17.4689 113.611 17.484 113.615H17.4953L17.5028 113.622C19.2201 114.935 21.0468 115.362 22.2697 114.744C23.4095 114.168 24.0171 112.722 24.0284 110.562C23.8737 110.791 23.4774 111.291 22.6999 111.718L22.7037 111.714Z" fill="#05286A"/>
<path d="M16.3139 96.7941C17.5254 95.451 19.3106 95.306 20.5523 95.3136C23.9906 95.3365 25.3682 97.2864 26.5797 99.0073C27.4667 100.263 28.2442 101.366 29.6595 101.366C29.8029 101.366 29.9539 101.354 30.1124 101.331C33.5733 100.808 34.9169 95.1991 35.0188 90.5514C35.0566 88.8076 34.8528 86.5677 32.9393 84.7284C30.8182 82.6907 26.9119 81.5116 21.3223 81.2255C21.2543 81.2178 18.5445 80.9278 15.6044 81.2369C12.8605 81.5231 9.34675 82.4046 8.1843 84.965C6.01037 89.7501 5.78014 96.092 9.15804 98.4197C12.5133 100.736 13.9211 99.4576 16.3177 96.798L16.3139 96.7941ZM8.25224 84.9917C9.39959 82.4656 12.8869 81.5956 15.6081 81.3094C18.5671 81.0003 21.2845 81.298 21.311 81.298C26.8817 81.5841 30.7729 82.7556 32.8789 84.7818C34.7697 86.602 34.9698 88.819 34.932 90.5476C34.8339 95.1648 33.5054 100.736 30.0935 101.251C28.4329 101.503 27.6025 100.324 26.6401 98.9615C25.4135 97.2253 24.0246 95.2564 20.5486 95.2335C20.5184 95.2335 20.4882 95.2335 20.458 95.2335C19.2087 95.2335 17.4575 95.4052 16.2535 96.7407C15.0798 98.0419 14.0985 99.0646 13.0153 99.4156C11.9434 99.7629 10.7659 99.4347 9.19579 98.351C5.85562 96.0462 6.0934 89.7501 8.25224 84.9955V84.9917Z" fill="black"/>
<path d="M14.4082 92.3944C13.9666 92.3944 13.6118 92.7569 13.6118 93.2034V95.2792C13.6118 95.7257 13.9704 96.0882 14.4082 96.0882C14.846 96.0882 15.2045 95.7257 15.2045 95.2792V93.2034C15.2045 92.7569 14.846 92.3944 14.4082 92.3944ZM15.129 95.2754C15.129 95.676 14.8045 96.0042 14.4082 96.0042C14.0119 96.0042 13.6873 95.676 13.6873 95.2754V93.1996C13.6873 92.7989 14.0119 92.4707 14.4082 92.4707C14.8045 92.4707 15.129 92.7989 15.129 93.1996V95.2754Z" fill="black"/>
<path d="M27.5876 96.9199C27.6329 96.9276 27.6744 96.9276 27.7197 96.9276C28.1952 96.9276 28.6104 96.5727 28.6783 96.0804L28.9652 93.9817C29.0369 93.4475 28.667 92.9514 28.1386 92.8789C27.882 92.8446 27.6291 92.9095 27.4215 93.0697C27.2139 93.2262 27.0818 93.4589 27.0479 93.7146L26.761 95.8133C26.7271 96.0728 26.7912 96.3285 26.9497 96.5383C27.1045 96.7482 27.3347 96.8818 27.5876 96.9161V96.9199ZM26.8365 95.8286L27.1234 93.7299C27.1573 93.4933 27.2781 93.2796 27.4668 93.1346C27.6555 92.9896 27.8895 92.9285 28.1235 92.9591C28.6104 93.0277 28.9501 93.4818 28.8821 93.9703L28.5953 96.069C28.5274 96.5612 28.0782 96.9047 27.5951 96.836C27.3611 96.8016 27.1498 96.6795 27.0064 96.4887C26.8629 96.2979 26.8026 96.0614 26.8327 95.8248L26.8365 95.8286Z" fill="black"/>
<path d="M27.4855 86.3424L28.8367 86.8842C28.8895 86.9071 28.9423 86.9147 28.999 86.9147C29.0593 86.9147 29.116 86.9033 29.1726 86.8804C29.2783 86.8346 29.3613 86.7468 29.4066 86.64C29.4972 86.4149 29.3877 86.1554 29.1613 86.0676L27.8101 85.5258C27.7006 85.4838 27.5836 85.4838 27.478 85.5296C27.3723 85.5754 27.2893 85.6631 27.244 85.77C27.1534 85.9951 27.2628 86.2546 27.4893 86.3424H27.4855ZM27.3157 85.8005C27.3496 85.7089 27.4176 85.6402 27.5082 85.6021C27.5534 85.583 27.6025 85.5716 27.6478 85.5716C27.6931 85.5716 27.7384 85.5792 27.7799 85.5983L29.1311 86.1401C29.316 86.2126 29.4028 86.4263 29.3311 86.6095C29.2971 86.7011 29.2292 86.7697 29.1386 86.8079C29.048 86.8461 28.9537 86.8461 28.8669 86.8117L27.5157 86.2699C27.3308 86.1974 27.244 85.9837 27.3157 85.8005Z" fill="black"/>
<path d="M13.7249 86.2319C13.774 86.2319 13.823 86.2243 13.8721 86.2052L15.2421 85.713C15.4686 85.6328 15.5893 85.3772 15.5063 85.1482C15.4686 85.0375 15.3893 84.9498 15.2836 84.8964C15.178 84.8468 15.061 84.8391 14.9515 84.8773L13.5815 85.3695C13.355 85.4497 13.2343 85.7053 13.3173 85.9343C13.3814 86.1136 13.5475 86.2281 13.7287 86.2281L13.7249 86.2319ZM13.6041 85.4497L14.9742 84.9574C15.1591 84.8925 15.3629 84.9879 15.4308 85.1787C15.495 85.3657 15.4006 85.5718 15.2119 85.6405L13.8419 86.1327C13.657 86.1976 13.4532 86.1022 13.3852 85.9114C13.3211 85.7244 13.4154 85.5183 13.6041 85.4497Z" fill="black"/>
<path d="M40.5252 72.6854C38.6193 72.4526 38.5061 73.1662 38.423 73.6851C37.8003 77.5353 37.5512 85.2891 37.3889 90.4214C37.3738 90.8641 37.3625 91.2838 37.3474 91.6883C37.1021 87.3115 35.5018 83.2591 32.8146 80.3361C31.3879 78.7831 29.6707 77.5582 27.7156 76.6958C25.5945 75.7609 23.1866 75.2496 20.5522 75.1771C17.7593 75.1008 15.2117 75.6121 12.9736 76.6958C11.1847 77.562 9.58817 78.7984 8.23323 80.3629C6.05175 82.8851 5.19878 85.4761 5.10442 85.7699C4.87042 86.3728 4.69681 86.9719 4.56849 87.5481C4.42507 87.6206 3.47774 88.1167 2.60591 89.0821C1.73407 90.0475 0.75655 91.6959 1.05471 94.058C1.66236 98.9117 4.67794 99.5604 6.89717 99.6253C7.13494 99.8428 7.39159 100.049 7.66333 100.232C8.30494 100.663 9.02959 101.003 9.83726 101.27C9.44475 101.434 9.10884 101.587 9.10507 101.587C9.07488 101.598 6.08571 102.941 4.59868 104.41C3.10033 105.899 3.92687 107.887 3.9382 107.906L3.94574 107.917C3.94574 107.917 4.4062 108.455 5.36107 108.455C5.90455 108.455 6.6141 108.283 7.49349 107.745C8.54271 107.104 9.88255 106.234 11.479 105.158C11.4262 105.544 11.3696 105.906 11.2979 106.181C10.494 107.715 8.67481 112.328 8.65594 112.374C8.55781 112.622 8.51252 112.897 8.5163 113.187C8.27852 113.381 4.23258 116.713 3.42113 118.514C3.23997 118.918 3.32678 119.391 3.68533 119.918C4.78739 121.536 8.19549 123.261 9.73159 123.261C9.7731 123.261 9.81084 123.261 9.84859 123.261C10.9318 123.188 12.0905 120.841 12.6868 119.449C13.5473 117.438 14.1512 115.312 14.2191 114.499C14.2267 114.393 14.2191 114.29 14.1889 114.19C14.2002 114.11 14.2078 114.023 14.2153 113.927C15.2985 113.629 16.3213 113.614 16.9214 113.641C16.6459 114.053 15.0041 116.575 14.9777 118.098C14.9664 118.712 15.8194 118.934 16.3817 119.082C16.5667 119.132 16.7252 119.174 16.8082 119.216C17.5404 119.597 19.0161 119.804 20.1333 119.804C20.7296 119.804 21.224 119.742 21.4467 119.617C21.8694 119.376 21.9147 117.88 21.8732 116.655C22.1751 116.617 22.4469 116.51 22.6809 116.331C23.3678 115.808 23.7037 114.732 23.6584 113.214C23.9565 112.477 24.1075 111.538 24.1037 110.417C24.1415 110.294 24.9642 107.765 25.0209 106.574C25.2699 106.604 25.5304 106.631 25.8021 106.654C25.8587 106.875 26.0474 107.112 26.3758 107.379C26.5419 107.494 30.4972 110.203 31.3615 110.355C31.5313 110.386 31.988 110.455 32.4938 110.455C33.2071 110.455 34.0185 110.313 34.2488 109.722C34.5809 108.863 34.5054 107.131 33.5052 106.07C34.913 105.532 36.1547 104.662 37.4455 103.376C39.8044 101.018 40.7177 97.6868 40.7819 95.3553C40.8121 94.2564 41.0951 90.0208 41.3895 85.5372C41.6726 81.2634 41.9632 76.8446 42.0991 74.3109C42.0991 74.2575 42.1066 74.2041 42.1104 74.1468C42.1557 73.5897 42.2123 72.8952 40.5101 72.6892L40.5252 72.6854ZM8.29739 80.4086C10.4147 77.9627 14.2606 75.0817 20.5484 75.2534C25.5757 75.3908 29.7952 77.1652 32.7542 80.3896C35.7018 83.5987 37.3361 88.1701 37.3021 93.0353C37.2681 93.9855 37.2341 94.7563 37.2002 95.2905C36.97 98.7705 34.83 101.972 32.3315 102.583C31.6974 102.739 30.9879 102.815 30.233 102.834C32.1088 102.518 33.4713 101.9 34.2865 100.991C36.1962 98.8736 37.1096 95.3401 36.7926 91.2991C36.5095 87.7007 35.3055 84.4153 33.7241 82.9233C28.3384 77.8482 15.5174 79.3974 13 79.7599C9.97313 80.1988 7.67465 81.5381 6.16497 83.7437C5.96494 84.0337 5.78755 84.3313 5.62904 84.629C6.08949 83.5834 6.93113 81.977 8.29739 80.401V80.4086ZM29.1045 102.911C29.2932 102.918 29.4819 102.922 29.6669 102.922C29.9122 102.922 30.1538 102.922 30.3915 102.911C30.5048 103.38 30.735 106.25 30.7652 106.62C30.2783 106.669 29.7688 106.696 29.2291 106.7L29.1008 102.911H29.1045ZM29.1536 106.7C29.0592 106.7 28.9611 106.7 28.8668 106.7C28.1723 106.696 27.5307 106.677 26.9306 106.646L27.0589 102.754C27.7194 102.827 28.3799 102.88 29.0253 102.903L29.1536 106.696V106.7ZM1.13774 94.0465C0.847131 91.715 1.80955 90.0895 2.67007 89.1355C3.4551 88.2617 4.30429 87.7771 4.55339 87.6435C4.36846 88.5288 4.2892 89.3606 4.26655 90.0589C4.11558 94.7334 4.90817 97.7212 6.81413 99.5375C4.63265 99.4612 1.73029 98.7705 1.13774 94.0427V94.0465ZM7.71239 100.163C5.21387 98.4729 4.1722 95.3592 4.34581 90.0628C4.37978 89.0248 4.54962 87.4374 5.17613 85.8157C5.17613 85.8157 5.17613 85.8119 5.17613 85.8081C6.18007 83.2095 8.35778 80.5193 13.0114 79.8439C15.5212 79.4814 28.3082 77.936 33.6675 82.9843C35.2376 84.4611 36.4302 87.7275 36.7095 91.3067C37.0228 95.3248 36.117 98.8354 34.2223 100.938C33.343 101.919 31.8031 102.556 29.6556 102.838C27.6628 102.827 25.436 102.48 23.5225 102.186C23.3225 102.155 23.1262 102.125 22.9337 102.094C21.6694 101.9 20.8089 101.972 20.3824 102.308C20.2729 102.392 20.2012 102.487 20.1484 102.586C19.854 102.56 19.5634 102.533 19.2803 102.506C18.8916 102.468 18.5104 102.434 18.148 102.396H18.1405H18.1329C16.9139 102.277 15.8382 102.167 14.906 102.064L14.8947 102.06C14.8947 102.06 14.8909 102.06 14.8871 102.06C13.2642 101.88 12.0829 101.724 11.3507 101.594C9.93162 101.281 8.71255 100.839 7.70484 100.16L7.71239 100.163ZM20.3258 104.689C19.3784 104.697 18.2462 104.605 17.0347 104.429C14.2116 104.014 11.4904 102.079 10.8072 101.568C10.9431 101.602 11.1167 101.636 11.3281 101.674C13.2454 102.098 15.5212 102.285 18.1065 102.499C18.1254 102.499 18.148 102.499 18.1669 102.502H18.1707C18.1745 102.502 18.1782 102.506 18.182 102.51C18.1896 102.51 18.1971 102.518 18.2009 102.522L18.2122 102.506C18.8274 102.556 19.4615 102.609 20.1106 102.667C20.0502 102.819 20.0351 102.968 20.0238 103.086C20.0238 103.124 20.0163 103.159 20.0125 103.189L20.0049 103.239C19.9559 103.544 19.8729 104.082 20.322 104.689H20.3258ZM17.0233 104.51C18.1933 104.681 19.2954 104.769 20.2238 104.769C20.2805 104.769 20.3333 104.769 20.3861 104.769C20.5635 104.987 20.8164 105.216 21.1636 105.441C21.9411 105.944 23.0319 106.295 24.5453 106.513C24.3679 106.604 23.9301 106.795 23.062 106.963C22.1109 107.15 20.9183 107.253 19.5143 107.265C19.4954 107.265 19.4766 107.265 19.4539 107.265C15.8647 107.265 14.053 104.063 13.7322 103.437C14.7248 103.914 15.8647 104.338 17.0196 104.51H17.0233ZM21.2051 105.376C19.8842 104.517 20.02 103.666 20.0842 103.254L20.0918 103.205C20.0955 103.174 20.0993 103.136 20.1031 103.098C20.1219 102.888 20.1521 102.598 20.4314 102.38C20.6881 102.178 21.1183 102.075 21.7109 102.075C22.0581 102.075 22.4619 102.109 22.9224 102.182C23.1149 102.212 23.3111 102.243 23.5112 102.273C23.9716 102.346 24.4547 102.418 24.9454 102.491L24.8057 106.475C24.7567 106.467 24.7114 106.463 24.6623 106.456H24.6548C23.1036 106.242 21.9902 105.891 21.2051 105.383V105.376ZM7.45197 107.677C5.15349 109.081 4.07784 107.948 4.00613 107.868C3.96084 107.749 3.23242 105.876 4.65152 104.464C6.12723 103.002 9.10507 101.671 9.13526 101.655C9.13904 101.655 9.52401 101.484 9.95049 101.304C10.1543 101.369 10.3619 101.43 10.5732 101.487L10.5921 101.503C10.611 101.518 11.8602 102.514 13.5964 103.369C13.5511 103.601 13.3661 103.807 13.0491 103.979C13.0416 103.983 12.4075 104.426 11.5055 105.04C9.87878 106.139 8.51252 107.024 7.4482 107.677H7.45197ZM8.73142 112.405C8.7503 112.363 10.3506 108.291 11.2111 106.528C11.2111 106.54 11.2073 106.547 11.2035 106.559C11.1922 106.612 11.1771 106.666 11.1658 106.719C11.1507 106.784 11.1356 106.849 11.1205 106.914C11.1092 106.971 11.0978 107.028 11.0827 107.081C11.0714 107.143 11.0563 107.2 11.045 107.261C11.0337 107.318 11.0224 107.375 11.011 107.433C10.9997 107.49 10.9884 107.543 10.9808 107.6C10.9695 107.658 10.962 107.715 10.9507 107.776C10.9431 107.829 10.9318 107.883 10.9242 107.936C10.9167 107.993 10.9054 108.051 10.8978 108.108C10.8903 108.161 10.8827 108.211 10.8752 108.261C10.8676 108.318 10.8601 108.371 10.8525 108.428C10.845 108.478 10.8412 108.528 10.8337 108.577C10.8261 108.631 10.8223 108.684 10.8148 108.741C10.811 108.791 10.8072 108.837 10.7997 108.886C10.7959 108.94 10.7921 108.989 10.7884 109.043C10.7884 109.092 10.7808 109.138 10.7808 109.184C10.7808 109.234 10.7733 109.283 10.7733 109.333C10.7733 109.379 10.7733 109.424 10.7695 109.474C10.7695 109.52 10.7695 109.569 10.7695 109.615C10.7695 109.661 10.7695 109.707 10.7695 109.753C10.7695 109.798 10.7695 109.84 10.7695 109.886C10.7695 109.932 10.7695 109.978 10.7733 110.023C10.7733 110.065 10.7733 110.107 10.777 110.146C10.777 110.191 10.7846 110.237 10.7846 110.279C10.7846 110.317 10.7884 110.355 10.7921 110.394C10.7959 110.439 10.8035 110.485 10.8072 110.531C10.811 110.565 10.8148 110.596 10.8186 110.63C10.8261 110.68 10.8337 110.729 10.8412 110.775C10.845 110.802 10.8487 110.829 10.8525 110.852C10.8676 110.924 10.8827 110.993 10.8978 111.061C11.1733 112.195 11.8678 113.179 12.7509 113.694C12.7811 113.713 12.8113 113.729 12.8415 113.744C13.2944 113.988 13.7473 114.068 14.0946 113.965L14.1285 113.958C14.1134 114.244 14.0681 114.446 13.9889 114.576C13.2718 115.805 12.2037 116.232 10.6185 115.919C9.96936 115.793 9.34662 115.274 8.9541 114.538C8.56536 113.816 8.47855 113.023 8.72388 112.412L8.73142 112.405ZM3.75326 119.872C3.40981 119.372 3.323 118.926 3.49662 118.548C4.26655 116.839 7.99923 113.721 8.52384 113.29C8.53894 113.595 8.61065 113.912 8.7352 114.221L3.82497 119.971C3.80233 119.937 3.77591 119.907 3.75326 119.872ZM3.87404 120.036L8.76917 114.305C8.80691 114.393 8.84842 114.48 8.89749 114.568C9.3051 115.324 9.94672 115.854 10.6185 115.988C10.9469 116.053 11.2526 116.083 11.5432 116.083C12.015 116.083 12.4339 115.995 12.8038 115.824L8.67859 123.001C7.07078 122.543 4.83646 121.276 3.87781 120.032L3.87404 120.036ZM14.1436 114.492C13.9927 116.278 11.6111 123.062 9.84859 123.177C9.81084 123.177 9.7731 123.177 9.73159 123.177C9.45607 123.177 9.12394 123.119 8.75407 123.02L12.9283 115.755C13.385 115.511 13.7624 115.125 14.0681 114.603C14.0983 114.549 14.1248 114.488 14.1474 114.412C14.1474 114.438 14.1474 114.461 14.1474 114.488L14.1436 114.492ZM15.0608 118.098C15.0872 116.533 16.8535 113.885 17.0158 113.645C17.2611 113.66 17.4196 113.679 17.4611 113.683C17.5857 113.778 17.7102 113.866 17.8348 113.95L15.7099 118.785C15.3551 118.64 15.0532 118.43 15.0608 118.094V118.098ZM16.8497 119.143C16.7591 119.098 16.5931 119.052 16.4044 119.002C16.2157 118.953 15.993 118.895 15.7816 118.815L17.8989 113.996C18.031 114.084 18.1669 114.168 18.3028 114.248C18.3632 114.385 18.9519 115.686 20.3144 116.339L20.1597 119.716C19.0501 119.716 17.5593 119.51 16.8497 119.14V119.143ZM21.4127 119.548C21.2165 119.659 20.7749 119.716 20.2389 119.72L20.3899 116.377C20.5145 116.434 20.6428 116.484 20.7787 116.53C21.0768 116.625 21.3599 116.675 21.6203 116.675C21.6807 116.675 21.7373 116.675 21.7977 116.667C21.8543 118.353 21.7147 119.376 21.4127 119.548ZM22.6393 116.27C22.1713 116.629 21.5373 116.69 20.8051 116.453C19.3294 115.976 18.6085 114.702 18.4236 114.32C19.3218 114.828 20.2201 115.095 21.0127 115.095C21.4844 115.095 21.9222 114.999 22.3034 114.809C22.8545 114.53 23.2847 114.053 23.5867 113.397C23.6018 114.793 23.2734 115.789 22.6356 116.274L22.6393 116.27ZM22.2695 114.736C21.0466 115.354 19.2199 114.927 17.5027 113.614L17.4951 113.607H17.4838C17.4838 113.607 15.8911 113.374 14.17 113.855L14.0832 113.877C13.7322 113.981 13.268 113.881 12.8038 113.61C11.9395 113.107 11.2601 112.141 10.9884 111.027C10.7204 109.928 10.8563 108.226 11.3696 106.227L11.3771 106.2C11.4526 105.902 11.513 105.509 11.5696 105.093C12.0565 104.761 12.4641 104.483 12.7358 104.296C12.5622 104.781 12.4377 105.341 12.3697 105.967C12.3697 105.979 12.2565 107.276 12.8038 108.68C13.3095 109.978 14.4946 111.641 17.2762 112.187C18.1254 112.355 18.8727 112.42 19.5294 112.42C21.024 112.42 22.0506 112.065 22.7035 111.706C23.4848 111.279 23.881 110.779 24.032 110.55C24.0169 112.71 23.4093 114.156 22.2732 114.732L22.2695 114.736ZM24.0358 110.397C24.0358 110.397 23.6659 111.092 22.6582 111.645C21.726 112.157 20.0351 112.653 17.2875 112.115C14.5437 111.577 13.3737 109.94 12.8755 108.661C12.3358 107.272 12.4452 105.994 12.4452 105.982C12.5169 105.319 12.6528 104.727 12.8453 104.227C13.0038 104.12 13.0906 104.055 13.0906 104.055C13.3963 103.891 13.585 103.697 13.6567 103.472C13.97 104.086 15.8005 107.352 19.4539 107.352C19.4728 107.352 19.4954 107.352 19.5143 107.352C20.9221 107.337 22.1185 107.238 23.0734 107.047C24.1566 106.837 24.5868 106.589 24.6699 106.536C24.7604 106.547 24.851 106.559 24.9454 106.57C24.8925 107.768 24.0396 110.378 24.032 110.397H24.0358ZM24.8888 106.482L25.0284 102.502C25.6662 102.594 26.3229 102.682 26.9797 102.754L26.8513 106.65C26.1342 106.612 25.4813 106.559 24.8888 106.482ZM34.1884 109.699C33.9015 110.439 32.5013 110.474 31.3879 110.283C30.5387 110.134 26.4739 107.349 26.4324 107.322C26.138 107.081 25.9569 106.864 25.8965 106.669C26.7721 106.742 27.7571 106.78 28.8668 106.788C28.9234 106.788 28.9838 106.788 29.0404 106.788C30.7539 106.788 32.1692 106.582 33.4449 106.108C34.4412 107.143 34.5205 108.856 34.1921 109.699H34.1884ZM30.8444 106.616C30.8142 106.227 30.5916 103.445 30.4708 102.911C31.1426 102.88 31.7729 102.804 32.3466 102.663C32.3956 102.651 32.4447 102.636 32.4975 102.621C32.6523 103.3 33.8374 105.441 34.0261 105.773C33.0599 106.211 32.0258 106.482 30.8444 106.612V106.616ZM37.404 103.327C36.3132 104.418 35.2565 105.208 34.0978 105.746C33.928 105.444 32.7202 103.262 32.573 102.605C33.6638 102.27 34.679 101.449 35.4867 100.343C36.5925 100.423 37.8871 102.392 38.0418 102.628C37.8418 102.869 37.6304 103.102 37.4078 103.327H37.404ZM38.0909 102.563C37.8795 102.235 36.6567 100.396 35.5395 100.266C35.9471 99.694 36.2981 99.0453 36.5774 98.3508C37.6946 98.0341 39.4081 99.9344 39.5855 100.133C39.2005 100.976 38.7099 101.804 38.0909 102.563ZM39.6194 100.053C39.3401 99.7398 37.7512 98.0074 36.6152 98.2592C36.9247 97.4655 37.1398 96.6146 37.2379 95.7369C37.5021 95.7675 38.9476 95.9277 39.9969 95.9277C40.2611 95.9277 40.5026 95.9163 40.6875 95.8934C40.5894 97.1488 40.2611 98.6217 39.6194 100.056V100.053ZM41.3254 85.5372C41.231 86.9834 41.1367 88.4067 41.0499 89.7041C40.5252 89.7956 37.5587 89.5056 37.5285 89.5018L37.521 89.582C37.6267 89.5934 39.7591 89.8033 40.7064 89.8033C40.8498 89.8033 40.9668 89.7995 41.0461 89.788C40.8725 92.4744 40.7366 94.6227 40.7177 95.3592C40.714 95.5042 40.7064 95.653 40.6951 95.8056C39.8006 95.9315 37.5701 95.6911 37.2492 95.653C37.2606 95.5347 37.2719 95.4164 37.2794 95.2981C37.3021 94.928 37.3285 94.451 37.3511 93.8786H37.3625C37.3738 93.6001 37.3813 93.3177 37.3851 93.0391C37.4115 92.2759 37.4417 91.3945 37.4719 90.4253C37.5889 86.762 37.7474 81.7595 38.0569 77.8024C38.34 77.8368 40.7668 78.142 41.65 78.142C41.7141 78.142 41.7707 78.142 41.816 78.1382C41.6764 80.3667 41.5028 82.9767 41.3329 85.5333L41.3254 85.5372ZM42.0462 74.143C42.0425 74.2002 42.0387 74.2537 42.0349 74.3071C41.9821 75.3068 41.9028 76.5966 41.8122 78.0581C41.1669 78.1115 38.3173 77.7604 38.0569 77.7261C38.1777 76.173 38.3249 74.7841 38.4985 73.7042C38.5815 73.189 38.6872 72.548 40.5139 72.7731C42.1444 72.9715 42.0915 73.5935 42.0462 74.1468V74.143Z" fill="black"/>
<path d="M29.6635 102.884C31.5808 102.632 33.2678 102.072 34.2604 100.969C38.5102 96.2524 36.8533 85.9267 33.7019 82.9579C29.0294 78.5544 18.439 79.0238 13.0117 79.806C6.32761 80.7714 4.44052 85.9992 4.30842 90.0631C3.91968 102.129 9.88668 101.724 20.1827 102.632" stroke="#05286A" stroke-miterlimit="10"/>
<path d="M21.3189 81.2639C21.3189 81.2639 10.4567 80.0543 8.21863 84.9805C5.98054 89.9068 5.90128 96.1267 9.17728 98.3856C12.4533 100.645 13.812 99.5151 16.2879 96.7715C17.4352 95.497 19.0996 95.2681 20.5527 95.2757C26.8292 95.3177 26.3499 101.858 30.1052 101.293C33.8605 100.729 34.8984 94.2683 34.9777 90.5517C35.0569 86.835 33.9398 81.9088 21.3189 81.2639Z" stroke="#05286A" stroke-miterlimit="10"/>
<path d="M15.1666 93.1996C15.1666 92.776 14.827 92.4326 14.408 92.4326C13.9891 92.4326 13.6494 92.776 13.6494 93.1996V95.2754C13.6494 95.699 13.9891 96.0424 14.408 96.0424C14.827 96.0424 15.1666 95.699 15.1666 95.2754V93.1996Z" stroke="#05286A" stroke-miterlimit="10"/>
<path d="M28.9235 93.9786C28.9933 93.465 28.638 92.9915 28.13 92.9209C27.622 92.8504 27.1536 93.2096 27.0839 93.7232L26.7984 95.8251C26.7286 96.3387 27.0838 96.8122 27.5919 96.8828C28.0999 96.9533 28.5682 96.5941 28.638 96.0805L28.9235 93.9786Z" stroke="#05286A" stroke-miterlimit="10"/>
<path d="M29.1448 86.1052L27.7947 85.562C27.5914 85.4801 27.3609 85.5805 27.28 85.7861C27.1991 85.9917 27.2983 86.2247 27.5017 86.3065L28.8518 86.8497C29.0551 86.9315 29.2856 86.8312 29.3665 86.6256C29.4474 86.42 29.3482 86.187 29.1448 86.1052Z" stroke="#05286A" stroke-miterlimit="10"/>
<path d="M13.8587 86.1655L15.2283 85.6746C15.4346 85.6007 15.5425 85.3717 15.4694 85.1631C15.3963 84.9546 15.1697 84.8454 14.9635 84.9194L13.5939 85.4103C13.3876 85.4842 13.2797 85.7132 13.3528 85.9218C13.4259 86.1303 13.6525 86.2395 13.8587 86.1655Z" stroke="#05286A" stroke-miterlimit="10"/>
<path d="M5.13867 85.8082C5.13867 85.8082 8.34296 74.8834 20.5525 75.2154C32.762 75.5474 37.7251 85.1824 37.3212 93.8749" stroke="#05286A" stroke-miterlimit="10"/>
<path d="M4.6104 87.5753C4.6104 87.5753 0.530499 89.51 1.09663 94.0546C1.66276 98.5993 4.31979 99.5151 6.91644 99.5876" stroke="#05286A" stroke-miterlimit="10"/>
<path d="M38.4612 73.6929C38.5481 73.1511 38.6764 72.5024 40.522 72.7275C42.3675 72.9526 42.1071 73.7082 42.0769 74.3073C41.7976 79.5731 40.8201 93.2377 40.7597 95.3555C40.6993 97.4733 39.8917 100.896 37.4347 103.35C34.9777 105.803 32.7018 106.773 28.8672 106.742C25.0327 106.712 22.5908 106.318 21.1905 105.41C19.7903 104.502 20.0017 103.594 20.062 103.201C20.1224 102.808 19.9715 101.686 22.938 102.14C25.9045 102.594 29.7391 103.262 32.3433 102.625C34.9475 101.987 37.0195 98.6562 37.2422 95.2945C37.4649 91.9327 37.5856 79.1 38.465 73.6929H38.4612Z" stroke="#05286A" stroke-miterlimit="10"/>
<path d="M9.95071 101.27C9.51668 101.453 9.12417 101.625 9.12417 101.625C9.12417 101.625 6.12745 102.961 4.6291 104.441C3.13074 105.926 3.97616 107.895 3.97616 107.895C3.97616 107.895 5.04803 109.196 7.47484 107.715C8.82223 106.891 10.3961 105.845 11.5321 105.078C12.4455 104.457 13.0757 104.018 13.0757 104.018C13.4381 103.823 13.6117 103.594 13.6494 103.354" stroke="#05286A" stroke-miterlimit="10"/>
<path d="M20.413 104.731C19.6204 104.742 18.4994 104.685 17.035 104.472C13.7402 103.987 10.6265 101.476 10.6265 101.476C11.6229 101.808 16.8312 102.323 20.179 102.636" stroke="#05286A" stroke-miterlimit="10"/>
<path d="M33.4568 106.063C34.4796 107.105 34.5551 108.864 34.2267 109.711C33.8984 110.558 32.2528 110.47 31.381 110.318C30.5129 110.165 26.4104 107.349 26.4104 107.349C26.0669 107.07 25.8895 106.83 25.8442 106.616" stroke="#05286A" stroke-miterlimit="10"/>
<path d="M13.6533 103.354C13.6533 103.354 15.4498 107.349 19.5222 107.311C21.1413 107.296 22.2849 107.162 23.0737 107.006C24.2211 106.784 24.6325 106.521 24.6702 106.49" stroke="#05286A" stroke-miterlimit="10"/>
<path d="M14.7478 102.159C14.8002 102.14 14.8526 102.121 14.9087 102.102" stroke="#05286A" stroke-miterlimit="10"/>
<path d="M19.3193 102.564C19.3193 102.564 19.3037 102.556 19.2959 102.556C19.2959 102.556 19.2959 102.556 19.292 102.556" stroke="#05286A" stroke-miterlimit="10"/>
<path d="M24.9949 106.529C24.9571 107.734 24.074 110.417 24.074 110.417C24.074 110.417 22.636 113.202 17.2842 112.157C11.9324 111.108 12.4117 105.979 12.4117 105.979C12.4872 105.288 12.6268 104.701 12.8193 104.205" stroke="#05286A" stroke-miterlimit="10"/>
<path d="M18.2313 102.495C18.2313 102.495 18.2011 102.48 18.1898 102.472C18.1898 102.472 18.1596 102.449 18.1445 102.442" stroke="#05286A" stroke-miterlimit="10"/>
<path d="M24.0741 110.417C24.1043 116.041 20.2999 115.801 17.4806 113.649C17.4806 113.649 15.9143 113.412 14.1819 113.897L14.0951 113.92C13.144 114.198 11.4456 113.073 10.9512 111.043C10.5247 109.299 11.2192 106.662 11.34 106.197C11.4154 105.903 11.472 105.514 11.5324 105.075" stroke="#05286A" stroke-miterlimit="10"/>
<path d="M14.1855 113.897C14.1742 114.198 14.1289 114.435 14.0383 114.587C13.2268 115.98 12.004 116.224 10.6264 115.95C9.24506 115.679 8.16565 113.733 8.70158 112.393C8.70158 112.393 10.5321 107.746 11.3435 106.2C11.2227 106.67 10.5283 109.302 10.9548 111.046C11.453 113.076 13.1514 114.202 14.0987 113.923C14.1289 113.916 14.1553 113.908 14.1855 113.901V113.897Z" stroke="#05286A" stroke-linecap="round" stroke-linejoin="round"/>
<path d="M23.6285 113.218C23.7077 115.9 22.5717 117.068 20.7978 116.492C19.0202 115.919 18.3408 114.221 18.3408 114.221" stroke="#05286A" stroke-miterlimit="10"/>
<path d="M14.159 114.198C14.1892 114.297 14.1967 114.396 14.1892 114.496C14.0495 116.148 11.6944 123.097 9.85641 123.219C8.01838 123.337 2.62883 120.391 3.4667 118.533C4.30457 116.675 8.56186 113.214 8.56186 113.214C8.56186 113.214 8.56186 113.212 8.56186 113.21" stroke="#05286A" stroke-miterlimit="10"/>
<path d="M21.8434 116.625C21.8811 117.694 21.866 119.342 21.4395 119.582C20.7979 119.945 17.9257 119.743 16.8388 119.178C16.4953 118.999 15.0158 118.876 15.0272 118.098C15.0574 116.438 17.0011 113.603 17.0011 113.603" stroke="#05286A" stroke-miterlimit="10"/>
<path d="M38.0347 77.7607C38.0347 77.7607 41.1597 78.1576 41.8277 78.0965" stroke="#05286A" stroke-miterlimit="10"/>
<path d="M37.5288 89.5403C37.5288 89.5403 40.5897 89.8417 41.0803 89.7387" stroke="#05286A" stroke-miterlimit="10"/>
<path d="M37.2043 95.6875C37.2043 95.6875 39.7783 95.989 40.7294 95.8401" stroke="#05286A" stroke-miterlimit="10"/>
<path d="M39.6348 100.118C39.6348 100.118 37.7628 97.9353 36.5513 98.3092" stroke="#05286A" stroke-miterlimit="10"/>
<path d="M38.0915 102.625C38.0915 102.625 36.6837 100.355 35.4722 100.293" stroke="#05286A" stroke-miterlimit="10"/>
<path d="M34.0867 105.796C34.0867 105.796 32.6487 103.239 32.5317 102.571" stroke="#05286A" stroke-miterlimit="10"/>
<path d="M30.811 106.658C30.811 106.658 30.543 103.273 30.426 102.873" stroke="#05286A" stroke-miterlimit="10"/>
<path d="M29.1952 106.746L29.0635 102.873" stroke="#05286A" stroke-miterlimit="10"/>
<path d="M26.8894 106.688L27.0211 102.716" stroke="#05286A" stroke-miterlimit="10"/>
<path d="M24.9943 102.434L24.8513 106.517" stroke="#05286A" stroke-miterlimit="10"/>
<path d="M3.8291 120.036L8.78462 114.232" stroke="#05286A" stroke-miterlimit="10"/>
<path d="M8.70166 123.047L12.8986 115.736" stroke="#05286A" stroke-miterlimit="10"/>
<path d="M15.7368 118.842L17.8919 113.939" stroke="#05286A" stroke-miterlimit="10"/>
<path d="M20.2017 119.766L20.3597 116.32" stroke="#05286A" stroke-miterlimit="10"/>
<path d="M26.6647 103.167C27.9153 103.167 28.9292 102.142 28.9292 100.877C28.9292 99.6127 27.9153 98.5876 26.6647 98.5876C25.414 98.5876 24.4001 99.6127 24.4001 100.877C24.4001 102.142 25.414 103.167 26.6647 103.167Z" fill="#E2DAC5"/>
<path d="M26.6645 102.497C27.5491 102.497 28.2661 101.772 28.2661 100.878C28.2661 99.9834 27.5491 99.2584 26.6645 99.2584C25.78 99.2584 25.063 99.9834 25.063 100.878C25.063 101.772 25.78 102.497 26.6645 102.497Z" fill="#4DCEC9"/>
<path d="M25.9714 100.849C26.473 100.849 26.8797 100.438 26.8797 99.9304C26.8797 99.4231 26.473 99.012 25.9714 99.012C25.4697 99.012 25.063 99.4231 25.063 99.9304C25.063 100.438 25.4697 100.849 25.9714 100.849Z" fill="#E2DAC5"/>
<path d="M39.497 106.983C40.3308 106.983 41.0067 106.299 41.0067 105.456C41.0067 104.613 40.3308 103.93 39.497 103.93C38.6632 103.93 37.9873 104.613 37.9873 105.456C37.9873 106.299 38.6632 106.983 39.497 106.983Z" fill="#E2DAC5"/>
<path d="M39.4971 106.536C40.0868 106.536 40.5648 106.053 40.5648 105.457C40.5648 104.86 40.0868 104.377 39.4971 104.377C38.9075 104.377 38.4294 104.86 38.4294 105.457C38.4294 106.053 38.9075 106.536 39.4971 106.536Z" fill="#4DCEC9"/>
<path d="M39.035 105.437C39.3695 105.437 39.6406 105.163 39.6406 104.825C39.6406 104.487 39.3695 104.213 39.035 104.213C38.7006 104.213 38.4294 104.487 38.4294 104.825C38.4294 105.163 38.7006 105.437 39.035 105.437Z" fill="#E2DAC5"/>
<path d="M25.9098 77.6006C27.1604 77.6006 28.1743 76.5756 28.1743 75.3111C28.1743 74.0467 27.1604 73.0216 25.9098 73.0216C24.6591 73.0216 23.6453 74.0467 23.6453 75.3111C23.6453 76.5756 24.6591 77.6006 25.9098 77.6006Z" fill="#E2DAC5"/>
<path d="M25.9099 76.9304C26.7944 76.9304 27.5115 76.2054 27.5115 75.3111C27.5115 74.4168 26.7944 73.6919 25.9099 73.6919C25.0254 73.6919 24.3083 74.4168 24.3083 75.3111C24.3083 76.2054 25.0254 76.9304 25.9099 76.9304Z" fill="#4DCEC9"/>
<path d="M25.2167 75.2822C25.7184 75.2822 26.1251 74.871 26.1251 74.3638C26.1251 73.8566 25.7184 73.4454 25.2167 73.4454C24.715 73.4454 24.3083 73.8566 24.3083 74.3638C24.3083 74.871 24.715 75.2822 25.2167 75.2822Z" fill="#E2DAC5"/>
<path d="M25.1551 68.4427C26.4058 68.4427 27.4197 67.4176 27.4197 66.1532C27.4197 64.8887 26.4058 63.8636 25.1551 63.8636C23.9045 63.8636 22.8906 64.8887 22.8906 66.1532C22.8906 67.4176 23.9045 68.4427 25.1551 68.4427Z" fill="#E2DAC5"/>
<path d="M25.1553 67.7723C26.0398 67.7723 26.7568 67.0473 26.7568 66.153C26.7568 65.2588 26.0398 64.5338 25.1553 64.5338C24.2708 64.5338 23.5537 65.2588 23.5537 66.153C23.5537 67.0473 24.2708 67.7723 25.1553 67.7723Z" fill="#4DCEC9"/>
<path d="M24.4621 66.1244C24.9638 66.1244 25.3705 65.7132 25.3705 65.206C25.3705 64.6988 24.9638 64.2876 24.4621 64.2876C23.9604 64.2876 23.5537 64.6988 23.5537 65.206C23.5537 65.7132 23.9604 66.1244 24.4621 66.1244Z" fill="#E2DAC5"/>
<path d="M33.4583 75.3111C35.7511 75.3111 37.6099 73.4319 37.6099 71.1137C37.6099 68.7955 35.7511 66.9163 33.4583 66.9163C31.1654 66.9163 29.3066 68.7955 29.3066 71.1137C29.3066 73.4319 31.1654 75.3111 33.4583 75.3111Z" fill="#E2DAC5"/>
<path d="M33.4582 74.0826C35.0798 74.0826 36.3943 72.7535 36.3943 71.114C36.3943 69.4745 35.0798 68.1454 33.4582 68.1454C31.8365 68.1454 30.522 69.4745 30.522 71.114C30.522 72.7535 31.8365 74.0826 33.4582 74.0826Z" fill="#4DCEC9"/>
<path d="M32.1873 71.0614C33.1071 71.0614 33.8527 70.3076 33.8527 69.3777C33.8527 68.4478 33.1071 67.694 32.1873 67.694C31.2676 67.694 30.522 68.4478 30.522 69.3777C30.522 70.3076 31.2676 71.0614 32.1873 71.0614Z" fill="#E2DAC5"/>
<defs>
<linearGradient id="paint0_linear_155_2339" x1="11.5529" y1="87.692" x2="14.0697" y2="89.2288" gradientUnits="userSpaceOnUse">
<stop stop-color="white" stop-opacity="0"/>
<stop offset="0.52" stop-color="white"/>
<stop offset="1" stop-color="white" stop-opacity="0"/>
</linearGradient>
<linearGradient id="paint1_linear_155_2339" x1="15.4701" y1="87.9794" x2="22.0642" y2="92.006" gradientUnits="userSpaceOnUse">
<stop stop-color="white" stop-opacity="0"/>
<stop offset="0.52" stop-color="white"/>
<stop offset="1" stop-color="white" stop-opacity="0"/>
</linearGradient>
<linearGradient id="paint2_linear_155_2339" x1="26.4132" y1="88.3513" x2="28.9301" y2="89.8882" gradientUnits="userSpaceOnUse">
<stop stop-color="white" stop-opacity="0"/>
<stop offset="0.52" stop-color="white"/>
<stop offset="1" stop-color="white" stop-opacity="0"/>
</linearGradient>
</defs>
</svg>
