<svg width="800" height="800" viewBox="0 0 800 800" fill="none" xmlns="http://www.w3.org/2000/svg">
<path d="M730.5 343L64.5 334L126 152L390 129L680 152L730.5 343Z" fill="#F74D4D" stroke="black"/>
<path d="M705.5 710.5H105L73.582 275H396H733.5L705.5 710.5Z" fill="#5FDC68" stroke="black"/>
<path d="M333.333 133.333C207.625 133.333 144.771 133.333 105.718 172.386C79.3597 198.745 70.792 235.947 68.0071 296C66.666 324.92 66.666 359.14 66.666 400V466.667C66.666 592.373 66.666 655.23 105.718 694.28C144.771 733.333 207.625 733.333 333.333 733.333H466.666C592.373 733.333 655.229 733.333 694.279 694.28C733.333 655.23 733.333 592.373 733.333 466.667V400C733.333 274.292 733.333 211.438 694.279 172.386C655.229 133.333 592.373 133.333 466.666 133.333H333.333Z" stroke="#1C274C" stroke-width="50"/>
<path opacity="0.5" d="M233.334 133.333V83.3335" stroke="#1C274C" stroke-width="50" stroke-linecap="round"/>
<path opacity="0.5" d="M566.666 133.333V83.3335" stroke="#1C274C" stroke-width="50" stroke-linecap="round"/>
<path opacity="0.5" d="M66.666 300H733.333" stroke="#1C274C" stroke-width="50" stroke-linecap="round"/>
</svg>
