<svg width="2003" height="276" viewBox="0 0 2003 276" fill="none" xmlns="http://www.w3.org/2000/svg">
<path d="M1 275V19.0327C1 19.0327 44.5495 1 151.785 1C259.02 1 254.119 26.5463 356.455 26.5463C458.791 26.5463 453.894 0.999885 560.041 1C662.847 1.00011 659.651 26.5463 771.243 26.5463C882.836 26.5463 883.38 1.00008 1016.74 1C1150.11 0.999922 1117.99 26.5463 1254.62 26.5463C1391.25 26.5463 1369.48 1.00018 1497.4 1C1625.32 0.99982 1607.9 26.5464 1707.51 26.5463C1807.13 26.5461 1786.99 1 1885.51 1C1984.04 1 2002 19.0327 2002 19.0327V275H1Z" fill="#574CFF" stroke="black" strokeWidth="2" strokeMiterlimit="3.99933"/>
</svg>
