<svg width="344" height="282" viewBox="0 0 344 282" fill="none" xmlns="http://www.w3.org/2000/svg">
<g clip-path="url(#clip0_146_2369)">
<mask id="mask0_146_2369" style="mask-type:alpha" maskUnits="userSpaceOnUse" x="-5" y="18" width="327" height="211">
<rect x="-5" y="18" width="327" height="211" fill="#D9D9D9"/>
</mask>
<g mask="url(#mask0_146_2369)">
<ellipse cx="69.9051" cy="108.619" rx="70.9051" ry="66.3847" fill="white"/>
<ellipse cx="72.4077" cy="203.119" rx="70.9051" ry="66.3847" fill="white"/>
<ellipse cx="171.258" cy="84.7983" rx="70.9051" ry="66.3847" fill="white"/>
<ellipse cx="241.162" cy="175.44" rx="78.6772" ry="66.3229" fill="white"/>
<ellipse cx="171.258" cy="215.615" rx="70.9051" ry="66.3847" fill="white"/>
</g>
<path d="M189.441 231.77C195.279 220.616 198.598 207.832 198.598 194.241C198.598 153.822 169.272 120.528 131.529 116.074C93.7831 120.528 64.4569 153.822 64.4569 194.241C64.4569 207.833 67.7767 220.616 73.6138 231.77H189.441V231.77Z" fill="#FDD72C"/>
<path d="M198.598 194.241C198.598 207.832 195.279 220.616 189.441 231.77H206.712C212.549 220.615 215.864 207.83 215.864 194.241C215.864 150.788 181.97 115.562 140.161 115.562C139.454 115.562 138.751 115.574 138.048 115.593C137.925 115.597 137.803 115.604 137.681 115.608C137.08 115.63 136.479 115.654 135.88 115.689C135.149 115.733 134.419 115.787 133.689 115.851C133.665 115.853 133.643 115.856 133.619 115.857C132.92 115.921 132.223 115.992 131.529 116.075C169.272 120.528 198.598 153.821 198.598 194.241Z" fill="#F87C22"/>
<path d="M113.891 188.996C113.891 189.498 113.99 189.996 114.182 190.46C114.374 190.924 114.655 191.346 115.01 191.701C115.365 192.056 115.786 192.338 116.25 192.531C116.713 192.723 117.21 192.822 117.712 192.822C118.214 192.822 118.711 192.723 119.175 192.531C119.638 192.338 120.059 192.056 120.414 191.701C120.769 191.346 121.051 190.924 121.242 190.46C121.434 189.996 121.533 189.498 121.533 188.996C121.533 188.493 121.434 187.996 121.242 187.532C121.051 187.067 120.769 186.645 120.414 186.29C120.059 185.935 119.638 185.653 119.175 185.461C118.711 185.268 118.214 185.169 117.712 185.169C117.21 185.169 116.713 185.268 116.25 185.461C115.786 185.653 115.365 185.935 115.01 186.29C114.655 186.645 114.374 187.067 114.182 187.532C113.99 187.996 113.891 188.493 113.891 188.996Z" fill="black"/>
<path d="M106.319 200.233C106.319 201.609 106.866 202.929 107.838 203.903C108.81 204.876 110.128 205.423 111.503 205.423C112.878 205.423 114.196 204.876 115.168 203.903C116.14 202.929 116.687 201.609 116.687 200.233C116.687 198.857 116.14 197.537 115.168 196.563C114.196 195.59 112.878 195.043 111.503 195.043C110.128 195.043 108.81 195.59 107.838 196.563C106.866 197.537 106.319 198.857 106.319 200.233Z" fill="#FEBB29"/>
<path d="M163.543 200.233C163.543 203.099 161.221 205.423 158.36 205.423C155.497 205.423 153.176 203.099 153.176 200.233C153.176 197.367 155.497 195.043 158.36 195.043C161.221 195.043 163.543 197.367 163.543 200.233Z" fill="#FEBB29"/>
<path d="M155.564 188.996C155.564 191.107 153.853 192.821 151.743 192.821C149.634 192.821 147.923 191.108 147.923 188.996C147.923 186.884 149.634 185.17 151.743 185.17C153.853 185.17 155.564 186.884 155.564 188.996ZM144.792 197.653C145.139 196.288 143.966 195.127 142.556 195.127H127.257C125.848 195.127 124.673 196.288 125.021 197.653C126.144 202.072 130.146 205.34 134.906 205.34C139.668 205.34 143.669 202.072 144.792 197.653Z" fill="black"/>
<path d="M139.748 201.813C139.748 203.185 137.581 204.298 134.907 204.298C132.234 204.298 130.065 203.185 130.065 201.813C130.065 200.441 132.234 199.328 134.907 199.328C137.581 199.327 139.748 200.441 139.748 201.813Z" fill="#F27E38"/>
<path d="M53.4167 212.525C51.8934 212.525 50.5391 211.44 50.2508 209.888C49.2978 204.761 48.8151 199.497 48.8151 194.241C48.8151 147.374 86.9001 109.244 133.713 109.244C153.152 109.244 171.444 115.646 186.609 127.756C188.001 128.867 188.23 130.898 187.119 132.291C186.011 133.685 183.982 133.914 182.589 132.802C168.577 121.614 151.676 115.7 133.713 115.7C90.4552 115.7 55.2627 150.933 55.2627 194.24C55.2627 199.102 55.709 203.968 56.5893 208.706C56.9154 210.459 55.7602 212.144 54.0098 212.47C53.8106 212.507 53.612 212.525 53.4167 212.525ZM60.6909 234.131C60.0926 234.131 59.506 233.965 58.9966 233.651C58.4873 233.337 58.0754 232.887 57.8071 232.351C56.3123 229.37 54.9942 226.304 53.8597 223.168C53.2537 221.492 54.1198 219.641 55.7943 219.035C57.4693 218.43 59.317 219.295 59.9229 220.972C60.9708 223.868 62.1884 226.701 63.5693 229.454C64.3684 231.047 63.7268 232.987 62.1352 233.787C61.6871 234.013 61.1925 234.131 60.6909 234.131ZM206.56 234.475C206.069 234.475 205.57 234.362 205.102 234.124C203.514 233.315 202.882 231.373 203.688 229.784C209.311 218.71 212.163 206.752 212.163 194.241C212.163 180.775 208.703 167.492 202.157 155.829C201.285 154.276 201.836 152.307 203.388 151.434C204.94 150.562 206.907 151.114 207.778 152.667C214.865 165.294 218.611 179.67 218.611 194.241C218.611 207.778 215.524 220.721 209.437 232.709C209.167 233.241 208.755 233.687 208.247 233.999C207.74 234.311 207.155 234.475 206.56 234.475ZM199.323 148.76C198.802 148.761 198.29 148.636 197.829 148.395C197.367 148.154 196.971 147.805 196.674 147.377C195.066 145.066 194.182 144.015 192.687 142.395C191.48 141.085 191.561 139.043 192.869 137.834C194.177 136.625 196.216 136.705 197.425 138.016C199.064 139.794 200.162 141.095 201.965 143.687C202.983 145.15 202.624 147.162 201.163 148.181C200.623 148.558 199.981 148.76 199.323 148.76ZM235.447 234.976H226.133C224.352 234.976 222.909 233.531 222.909 231.748C222.909 229.966 224.352 228.52 226.133 228.52H235.446C237.227 228.52 238.67 229.966 238.67 231.748C238.67 233.531 237.227 234.976 235.447 234.976Z" fill="black"/>
<path d="M215.386 234.976H127.264C125.484 234.976 124.041 233.531 124.041 231.748C124.041 229.966 125.484 228.521 127.264 228.521H215.386C217.167 228.521 218.61 229.966 218.61 231.748C218.61 233.531 217.167 234.976 215.386 234.976ZM115.802 234.976H35.8004C34.0197 234.976 32.5765 233.531 32.5765 231.748C32.5765 229.966 34.02 228.521 35.8004 228.521H115.802C117.582 228.521 119.025 229.966 119.025 231.748C119.025 233.531 117.582 234.976 115.802 234.976ZM192.46 250.277H165.952C164.172 250.277 162.729 248.832 162.729 247.05C162.729 245.267 164.172 243.822 165.952 243.822H192.46C194.241 243.822 195.684 245.267 195.684 247.05C195.684 248.832 194.241 250.277 192.46 250.277ZM153.474 250.277H54.2269C52.4462 250.277 51.0031 248.832 51.0031 247.05C51.0031 245.267 52.4465 243.822 54.2269 243.822H153.474C155.254 243.822 156.697 245.267 156.697 247.05C156.697 248.832 155.254 250.277 153.474 250.277ZM172.221 267.73H95.7415C93.9608 267.73 92.5177 266.285 92.5177 264.503C92.5177 262.72 93.9611 261.275 95.7415 261.275H172.221C174.002 261.275 175.445 262.72 175.445 264.503C175.445 266.285 174.002 267.73 172.221 267.73ZM84.5928 267.73H74.9651C73.1844 267.73 71.7413 266.285 71.7413 264.503C71.7413 262.72 73.1847 261.275 74.9651 261.275H84.5928C86.3735 261.275 87.8166 262.72 87.8166 264.503C87.8166 266.285 86.3732 267.73 84.5928 267.73ZM147.921 281.837H114.011C112.23 281.837 110.787 280.392 110.787 278.61C110.787 276.827 112.23 275.382 114.011 275.382H147.921C149.702 275.382 151.145 276.827 151.145 278.61C151.145 280.392 149.702 281.837 147.921 281.837Z" fill="black"/>
</g>
<defs>
<clipPath id="clip0_146_2369">
<rect width="344" height="282" fill="white"/>
</clipPath>
</defs>
</svg>
