<svg width="1282" height="55" viewBox="0 0 1282 55" fill="none" xmlns="http://www.w3.org/2000/svg">
<path d="M1204.53 1.5C1254.12 1.5 1281 19.3481 1281 19.3481V54H1V19.3481C1 19.3481 26.9037 1.5 95.5 1.5C164.096 1.5 162.915 19.3481 228.378 19.3481C293.84 19.3481 288.754 1.49997 356.653 1.5C422.416 1.50003 422.326 19.3481 493.71 19.3481C565.093 19.3481 563.487 1.50002 648.797 1.5C734.107 1.49998 715.517 19.3481 802.917 19.3481C890.316 19.3481 888.07 1.50004 956.262 1.5C1024.45 1.49996 1028.9 19.3481 1092.62 19.3481C1156.34 19.3481 1154.95 1.5 1204.53 1.5Z" fill="#01D589" stroke="black" stroke-width="2" stroke-miterlimit="3.99933"/>
</svg>
