<svg width="1282" height="56" viewBox="0 0 1282 56" fill="none" xmlns="http://www.w3.org/2000/svg">
<path d="M1205.38 42.3815C1254.96 42.3815 1281 54 1281 54V1.5H1V54C1 54 27.7502 42.3815 96.3466 42.3815C164.943 42.3815 162.915 54 228.378 54C293.84 54 289.6 42.3815 357.5 42.3815C423.263 42.3814 422.326 54 493.71 54C565.093 54 564.334 42.3814 649.644 42.3815C734.954 42.3815 715.517 54 802.917 54C890.316 54 888.917 42.3814 957.108 42.3815C1025.3 42.3815 1028.9 54 1092.62 54C1156.34 54 1155.79 42.3815 1205.38 42.3815Z" fill="#F8DBDF" stroke="black" stroke-width="2px" stroke-miterlimit="3.99933"/>
</svg>
