<svg width="18" height="18" viewBox="0 0 18 18" fill="none" xmlns="http://www.w3.org/2000/svg">
<path fill-rule="evenodd" clip-rule="evenodd" d="M8.9999 10.35C7.2602 10.35 5.8499 8.93975 5.8499 7.20005C5.8499 5.46035 7.2602 4.05005 8.9999 4.05005C10.7396 4.05005 12.1499 5.46035 12.1499 7.20005C12.1499 8.93975 10.7396 10.35 8.9999 10.35ZM8.9999 5.85005C8.25434 5.85005 7.6499 6.45446 7.6499 7.20005C7.6499 7.94564 8.25434 8.55005 8.9999 8.55005C9.74549 8.55005 10.3499 7.94564 10.3499 7.20005C10.3499 6.45446 9.74549 5.85005 8.9999 5.85005Z" fill="black"/>
<path fill-rule="evenodd" clip-rule="evenodd" d="M15.75 7.31077C15.75 11.129 11.8064 17.55 9 17.55C6.19362 17.55 2.25 11.129 2.25 7.31077C2.25 3.52539 5.26824 0.449951 9 0.449951C12.7317 0.449951 15.75 3.52539 15.75 7.31077ZM4.05 7.31077C4.05 10.2624 7.42041 15.75 9 15.75C10.5796 15.75 13.95 10.2624 13.95 7.31077C13.95 4.51201 11.73 2.24995 9 2.24995C6.27003 2.24995 4.05 4.51201 4.05 7.31077Z" fill="black"/>
</svg>
