<svg width="42" height="42" viewBox="0 0 42 42" fill="none" xmlns="http://www.w3.org/2000/svg">
<path d="M14.1501 16.8C14.1501 20.5831 17.2169 23.65 21.0001 23.65C24.7833 23.65 27.8501 20.5831 27.8501 16.8C27.8501 13.0168 24.7833 9.94995 21.0001 9.94995C17.2169 9.94995 14.1501 13.0168 14.1501 16.8ZM17.3501 16.8C17.3501 14.7841 18.9843 13.15 21.0001 13.15C23.0159 13.15 24.6501 14.7841 24.6501 16.8C24.6501 18.8158 23.0159 20.45 21.0001 20.45C18.9843 20.45 17.3501 18.8158 17.3501 16.8Z" fill="#574CFF" stroke="black"/>
<path d="M21 40.4501C22.4575 40.4501 24.1455 39.6073 25.8962 38.0918C27.6336 36.588 29.3679 34.4773 30.9098 32.0752C34.0032 27.2558 36.25 21.3784 36.25 17.0586C36.25 8.49413 29.4233 1.55005 21 1.55005C12.5767 1.55005 5.75 8.49413 5.75 17.0586C5.75 21.3784 7.99678 27.2558 11.0902 32.0752C12.632 34.4773 14.3664 36.588 16.1038 38.0918C17.8545 39.6073 19.5425 40.4501 21 40.4501ZM21 37.25C20.4025 37.25 19.7805 36.9946 19.1759 36.6075C18.5639 36.2156 17.9239 35.6592 17.2797 34.988C15.9904 33.6449 14.6399 31.7959 13.4136 29.7434C12.1862 27.689 11.0738 25.4146 10.2669 23.213C9.46254 21.0181 8.95 18.8637 8.95 17.0586C8.95 10.262 14.344 4.75005 21 4.75005C27.656 4.75005 33.05 10.262 33.05 17.0586C33.05 18.8637 32.5375 21.0181 31.7331 23.213C30.9262 25.4146 29.8138 27.689 28.5864 29.7434C27.3602 31.7959 26.0096 33.6449 24.7203 34.988C24.0761 35.6592 23.4361 36.2156 22.8241 36.6075C22.2195 36.9946 21.5975 37.25 21 37.25Z" fill="#574CFF" stroke="black"/>
</svg>
